<svg height="512pt" viewBox="0 0 512 512" width="512pt" xmlns="http://www.w3.org/2000/svg"><path d="m50 342h40v120h-40zm0 0" fill="#fa9600"/><path d="m50 22h40v120h-40zm0 0" fill="#32beb4"/><path d="m90 32h40v110h-40zm0 0" fill="#fa9600"/><path d="m130 22h50v120h-50zm0 0" fill="#fad79b"/><path d="m50 182h40v120h-40zm0 0" fill="#32beb4"/><path d="m90 192h40v110h-40zm0 0" fill="#9b4c14"/><path d="m130 182h40v120h-40zm0 0" fill="#e6e6e6"/><path d="m170 192h60v110h-60zm0 0" fill="#fa9600"/><path d="m270 142h40v160h-40zm0 0" fill="#fad79b"/><path d="m310 182h40v120h-40zm0 0" fill="#c8e7f9"/><path d="m350 192h52v110h-52zm0 0" fill="#ee3c32"/><path d="m230 142h40v160h-40zm0 0" fill="#8296aa"/><path d="m220 10h70v132h-70zm0 0" fill="#c8e7f9"/><path d="m180 42h40v100h-40zm0 0" fill="#ee3c32"/><path d="m290 22h40v120h-40zm0 0" fill="#9b4c14"/><path d="m330 10h40v132h-40zm0 0" fill="#8296aa"/><path d="m370 22h40v120h-40zm0 0" fill="#e6e6e6"/><path d="m410 22h52v120h-52zm0 0" fill="#4696e6"/><path d="m90 359h40v103h-40zm0 0" fill="#4696e6"/><path d="m170 359h40v103h-40zm0 0" fill="#32beb4"/><path d="m212.070312 405.355469 28.28125-28.28125 56.570313 56.566406-28.285156 28.285156zm0 0" fill="#f03c32"/><path d="m422 359h40v103h-40zm0 0" fill="#8296aa"/><path d="m382 382h40v80h-40zm0 0" fill="#fad79b"/><path d="m338 352h44v110h-44zm0 0" fill="#c8e7f9"/><path d="m462 10h40v492h-40zm0 0" fill="#ee3c32"/><path d="m10 10h40v492h-40zm0 0" fill="#ee3c32"/><path d="m502 0h-40c-5.523438 0-10 4.476562-10 10v2h-72v-2c0-5.523438-4.476562-10-10-10h-40c-5.523438 0-10 4.476562-10 10v2h-20v-2c0-5.523438-4.476562-10-10-10h-70c-5.523438 0-10 4.476562-10 10v22h-20v-10c0-5.523438-4.476562-10-10-10h-50c-5.523438 0-10 4.476562-10 10h-20c0-5.523438-4.476562-10-10-10h-30v-2c0-5.523438-4.476562-10-10-10h-40c-5.523438 0-10 4.476562-10 10v492c0 5.523438 4.476562 10 10 10h100c5.523438 0 10-4.476562 10-10s-4.476562-10-10-10h-50v-20h392v20h-10c-5.511719 0-10 4.488281-10 10s4.488281 10 10 10h60c5.523438 0 10-4.476562 10-10v-492c0-5.523438-4.476562-10-10-10zm-80 349c-5.523438 0-10 4.476562-10 10v13h-20v-20c0-5.523438-4.476562-10-10-10h-44c-5.523438 0-10 4.476562-10 10v100h-35.289062l11.285156-11.285156c1.875-1.875 2.929687-4.421875 2.929687-7.074219s-1.054687-5.195313-2.929687-7.070313l-56.566406-56.566406c-3.90625-3.90625-10.238282-3.90625-14.144532 0l-13.285156 13.285156v-24.289062c0-5.523438-4.476562-10-10-10h-40c-5.523438 0-10 4.476562-10 10v93h-20v-93c0-5.523438-4.476562-10-10-10h-30v-7c0-5.523438-4.476562-10-10-10h-30v-20h392v37zm-202 78.425781 24.574219 24.574219h-24.574219zm6.214844-22.066406 14.144531-14.144531 42.425781 42.425781-14.144531 14.144531zm-6.214844-253.359375v30h-40c0-5.523438-4.476562-10-10-10h-40c-5.523438 0-10 4.476562-10 10h-20c0-5.523438-4.476562-10-10-10h-30v-20zm232 0v140h-40v-100c0-5.523438-4.476562-10-10-10h-42c0-5.523438-4.476562-10-10-10h-30v-20zm-132 140v-100h20v100zm40-90h32v90h-32zm-60-50v140h-20v-140zm-40 140h-20v-140h20zm-80 0v-90h40v90zm-40 0v-100h20v100zm-40 0v-90h20v90zm-40 0v-100h20v100zm392-160h-32v-100h32zm-52-100v100h-20v-100zm-60-12h20v112h-20zm-20 12v100h-20v-100zm-90-12h50v112h-50zm-20 32v80h-20v-80zm-40-20v100h-30v-100zm-50 10v90h-20v-90zm-40-10v100h-20v-100zm-60 460v-472h20v472zm40-140h20v100h-20zm40 100v-83h20v83zm80 0v-83h20v83zm168-90h24v90h-24zm44 30h20v60h-20zm40 60v-83h20v83zm40 40v-472h20v472zm0 0"/><path d="m402 492c-5.511719 0-10 4.488281-10 10s4.488281 10 10 10 10-4.488281 10-10-4.488281-10-10-10zm0 0"/></svg>