<svg height="512pt" viewBox="-27 0 512 512" width="512pt" xmlns="http://www.w3.org/2000/svg"><path d="m7.5 7.5h442v497h-442zm0 0" fill="#fbe1a8"/><path d="m419.5 7.5h30v497h-30zm0 0" fill="#f2cf91"/><path d="m37.5 37.5h382v90h-382zm0 0" fill="#af8164"/><path d="m389.5 37.5h30v90h-30zm0 0" fill="#9a7055"/><path d="m37.5 157.5h382v90h-382zm0 0" fill="#af8164"/><path d="m389.5 157.5h30v90h-30zm0 0" fill="#9a7055"/><path d="m37.5 277.5h382v90h-382zm0 0" fill="#af8164"/><path d="m389.5 277.5h30v90h-30zm0 0" fill="#9a7055"/><path d="m243.5 401.5h176v70h-176zm0 0" fill="#eabf7e"/><path d="m37.5 401.5h176v70h-176zm0 0" fill="#eabf7e"/><path d="m76.75 73.5h30v54h-30zm0 0" fill="#b5fcff"/><path d="m106.75 62.5h30v65h-30zm0 0" fill="#fe5e70"/><path d="m136.75 73.5h30v54h-30zm0 0" fill="#e9eef2"/><path d="m166.75 62.5h30v65h-30zm0 0" fill="#ffd659"/><path d="m196.75 77.5h30v50h-30zm0 0" fill="#6d6670"/><path d="m230.5 193.5h30v54h-30zm0 0" fill="#b5fcff"/><path d="m260.5 182.5h30v65h-30zm0 0" fill="#fe5e70"/><path d="m290.5 193.5h30v54h-30zm0 0" fill="#e9eef2"/><path d="m320.5 182.5h30v65h-30zm0 0" fill="#ffd659"/><path d="m350.5 197.5h30v50h-30zm0 0" fill="#6d6670"/><path d="m97.5 313.5h30v54h-30zm0 0" fill="#b5fcff"/><path d="m127.5 302.5h30v65h-30zm0 0" fill="#fe5e70"/><path d="m157.5 313.5h30v54h-30zm0 0" fill="#e9eef2"/><path d="m187.5 302.5h30v65h-30zm0 0" fill="#ffd659"/><path d="m217.5 317.5h30v50h-30zm0 0" fill="#6d6670"/><path d="m449.5 440.25c-4.140625 0-7.5 3.359375-7.5 7.5v49.25h-427v-402c0-4.140625-3.359375-7.5-7.5-7.5s-7.5 3.359375-7.5 7.5v409.5c0 4.140625 3.359375 7.5 7.5 7.5h442c4.140625 0 7.5-3.359375 7.5-7.5v-56.75c0-4.140625-3.359375-7.5-7.5-7.5zm0 0"/><path d="m449.5 0h-442c-4.140625 0-7.5 3.359375-7.5 7.5v56.5c0 4.140625 3.359375 7.5 7.5 7.5s7.5-3.359375 7.5-7.5v-49h427v400.75c0 4.140625 3.359375 7.5 7.5 7.5s7.5-3.359375 7.5-7.5v-408.25c0-4.140625-3.359375-7.5-7.5-7.5zm0 0"/><path d="m37.5 135h382c4.140625 0 7.5-3.359375 7.5-7.5v-90c0-4.140625-3.359375-7.5-7.5-7.5h-382c-4.140625 0-7.5 3.359375-7.5 7.5v90c0 4.140625 3.359375 7.5 7.5 7.5zm61.75-15h-15v-39h15zm15-50h15v50h-15zm30 11h15v39h-15zm30-11h15v50h-15zm30 50v-35h15v35zm-159.25-75h367v75h-177.75v-42.5c0-4.140625-3.359375-7.5-7.5-7.5h-22.5v-7.5c0-4.140625-3.359375-7.5-7.5-7.5h-30c-4.140625 0-7.5 3.359375-7.5 7.5v3.5h-15v-3.5c0-4.140625-3.359375-7.5-7.5-7.5h-30c-4.140625 0-7.5 3.359375-7.5 7.5v3.5h-22.5c-4.140625 0-7.5 3.359375-7.5 7.5v46.5h-24.25zm0 0"/><path d="m30 247.5c0 4.140625 3.359375 7.5 7.5 7.5h30.75c4.140625 0 7.5-3.359375 7.5-7.5s-3.359375-7.5-7.5-7.5h-23.25v-75h367v75h-24v-42.5c0-4.140625-3.359375-7.5-7.5-7.5h-22.5v-7.5c0-4.140625-3.359375-7.5-7.5-7.5h-30c-4.140625 0-7.5 3.359375-7.5 7.5v3.5h-15v-3.5c0-4.140625-3.359375-7.5-7.5-7.5h-30c-4.140625 0-7.5 3.359375-7.5 7.5v3.5h-22.5c-4.140625 0-7.5 3.359375-7.5 7.5v46.5h-122.25c-4.140625 0-7.5 3.359375-7.5 7.5s3.359375 7.5 7.5 7.5h318.75c4.140625 0 7.5-3.359375 7.5-7.5v-90c0-4.140625-3.359375-7.5-7.5-7.5h-382c-4.140625 0-7.5 3.359375-7.5 7.5zm208-46.5h15v39h-15zm30-11h15v50h-15zm30 11h15v39h-15zm30-11h15v50h-15zm30 50v-35h15v35zm0 0"/><path d="m30 367.5c0 4.140625 3.359375 7.5 7.5 7.5h382c4.140625 0 7.5-3.359375 7.5-7.5v-90c0-4.140625-3.359375-7.5-7.5-7.5h-382c-4.140625 0-7.5 3.359375-7.5 7.5zm90-7.5h-15v-39h15zm15-50h15v50h-15zm30 11h15v39h-15zm30-11h15v50h-15zm30 50v-35h15v35zm-180-75h367v75h-157v-42.5c0-4.140625-3.359375-7.5-7.5-7.5h-22.5v-7.5c0-4.140625-3.359375-7.5-7.5-7.5h-30c-4.140625 0-7.5 3.359375-7.5 7.5v3.5h-15v-3.5c0-4.140625-3.359375-7.5-7.5-7.5h-30c-4.140625 0-7.5 3.359375-7.5 7.5v3.5h-22.5c-4.140625 0-7.5 3.359375-7.5 7.5v46.5h-45zm0 0"/><path d="m419.5 394h-176c-4.140625 0-7.5 3.359375-7.5 7.5v70c0 4.140625 3.359375 7.5 7.5 7.5h176c4.140625 0 7.5-3.359375 7.5-7.5v-70c0-4.140625-3.359375-7.5-7.5-7.5zm-7.5 70h-161v-55h161zm0 0"/><path d="m30 471.5c0 4.140625 3.359375 7.5 7.5 7.5h176c4.140625 0 7.5-3.359375 7.5-7.5v-70c0-4.140625-3.359375-7.5-7.5-7.5h-176c-4.140625 0-7.5 3.359375-7.5 7.5zm15-62.5h161v55h-161zm0 0"/><path d="m129.5 429h-10c-4.140625 0-7.5 3.359375-7.5 7.5s3.359375 7.5 7.5 7.5h10c4.140625 0 7.5-3.359375 7.5-7.5s-3.359375-7.5-7.5-7.5zm0 0"/><path d="m326.5 444h10c4.140625 0 7.5-3.359375 7.5-7.5s-3.359375-7.5-7.5-7.5h-10c-4.140625 0-7.5 3.359375-7.5 7.5s3.359375 7.5 7.5 7.5zm0 0"/></svg>