<?xml version="1.0" encoding="iso-8859-1"?>
<!-- Generator: Adobe Illustrator 19.0.0, SVG Export Plug-In . SVG Version: 6.00 Build 0)  -->
<svg version="1.1" id="Capa_1" xmlns="http://www.w3.org/2000/svg" xmlns:xlink="http://www.w3.org/1999/xlink" x="0px" y="0px"
	 viewBox="0 0 449.306 449.306" style="enable-background:new 0 0 449.306 449.306;" xml:space="preserve">
<path style="fill:#4DCFE0;" d="M318.694,433.633h-31.347V289.959H109.714v143.673H78.367V274.286
	c0-8.882,6.792-15.673,15.673-15.673h208.98c8.882,0,15.673,6.792,15.673,15.673V433.633z"/>
<path style="fill:#1185E0;" d="M444.082,103.967L328.098,3.657C325.486,1.045,321.829,0,317.649,0H15.673C6.792,0,0,6.792,0,15.673
	v417.959c0,8.882,6.792,15.673,15.673,15.673h417.959c8.882,0,15.673-6.792,15.673-15.673V115.984
	C449.306,111.282,447.216,107.102,444.082,103.967z M135.837,31.347h125.388v91.429H135.837V31.347z M417.959,417.959H31.347V31.347
	h73.143v107.102c0,8.882,6.792,15.673,15.673,15.673h156.735c8.882,0,15.673-6.792,15.673-15.673V31.347h19.331l106.057,91.951
	V417.959z"/>
<g>
</g>
<g>
</g>
<g>
</g>
<g>
</g>
<g>
</g>
<g>
</g>
<g>
</g>
<g>
</g>
<g>
</g>
<g>
</g>
<g>
</g>
<g>
</g>
<g>
</g>
<g>
</g>
<g>
</g>
</svg>
