<?xml version="1.0" encoding="iso-8859-1"?>
<!-- Generator: Adobe Illustrator 19.0.0, SVG Export Plug-In . SVG Version: 6.00 Build 0)  -->
<svg version="1.1" id="Capa_1" xmlns="http://www.w3.org/2000/svg" xmlns:xlink="http://www.w3.org/1999/xlink" x="0px" y="0px"
	 viewBox="0 0 60 60" style="enable-background:new 0 0 60 60;" xml:space="preserve">
<g>
	<path d="M0,0.5v59h60v-59H0z M58,57.5H2v-55h56V57.5z"/>
	<path d="M26,13.5h21c0.552,0,1-0.447,1-1s-0.448-1-1-1H26c-0.552,0-1,0.447-1,1S25.448,13.5,26,13.5z"/>
	<path d="M47,18.5H34c-0.552,0-1,0.447-1,1s0.448,1,1,1h13c0.552,0,1-0.447,1-1S47.552,18.5,47,18.5z"/>
	<path d="M26,27.5h21c0.552,0,1-0.447,1-1s-0.448-1-1-1H26c-0.552,0-1,0.447-1,1S25.448,27.5,26,27.5z"/>
	<path d="M47,32.5H30c-0.552,0-1,0.447-1,1s0.448,1,1,1h17c0.552,0,1-0.447,1-1S47.552,32.5,47,32.5z"/>
	<path d="M47,39.5H34c-0.552,0-1,0.447-1,1s0.448,1,1,1h13c0.552,0,1-0.447,1-1S47.552,39.5,47,39.5z"/>
	<path d="M26,48.5h21c0.552,0,1-0.447,1-1s-0.448-1-1-1H26c-0.552,0-1,0.447-1,1S25.448,48.5,26,48.5z"/>
	<path d="M19,48.5c0.552,0,1-0.447,1-1v-35c0-0.553-0.448-1-1-1s-1,0.447-1,1v35C18,48.053,18.448,48.5,19,48.5z"/>
	<path d="M7.427,41.319C7.601,41.441,7.801,41.5,7.999,41.5c0.315,0,0.625-0.148,0.82-0.427l7-10
		c0.005-0.007,0.005-0.015,0.01-0.022c0.043-0.064,0.064-0.136,0.09-0.207c0.019-0.052,0.049-0.1,0.059-0.153
		c0.012-0.063,0.003-0.126,0.003-0.19c0-0.064,0.009-0.128-0.003-0.19c-0.01-0.053-0.04-0.101-0.059-0.153
		c-0.026-0.071-0.048-0.143-0.09-0.207c-0.005-0.007-0.005-0.016-0.01-0.022l-7-10c-0.317-0.452-0.94-0.562-1.393-0.246
		c-0.453,0.316-0.563,0.94-0.246,1.393l6.599,9.427l-6.599,9.427C6.864,40.379,6.974,41.003,7.427,41.319z"/>
</g>
<g>
</g>
<g>
</g>
<g>
</g>
<g>
</g>
<g>
</g>
<g>
</g>
<g>
</g>
<g>
</g>
<g>
</g>
<g>
</g>
<g>
</g>
<g>
</g>
<g>
</g>
<g>
</g>
<g>
</g>
</svg>
