<?xml version="1.0" encoding="iso-8859-1"?>
<!-- Generator: Adobe Illustrator 19.0.0, SVG Export Plug-In . SVG Version: 6.00 Build 0)  -->
<svg version="1.1" id="Capa_1" xmlns="http://www.w3.org/2000/svg" xmlns:xlink="http://www.w3.org/1999/xlink" x="0px" y="0px"
	 viewBox="0 0 60 60" style="enable-background:new 0 0 60 60;" xml:space="preserve">
<g>
	<path d="M0,0.5v59h60v-59H0z M58,57.5H2v-55h56V57.5z"/>
	<path d="M13,13.5h34c0.552,0,1-0.447,1-1s-0.448-1-1-1H13c-0.552,0-1,0.447-1,1S12.448,13.5,13,13.5z"/>
	<path d="M13,20.5h34c0.552,0,1-0.447,1-1s-0.448-1-1-1H13c-0.552,0-1,0.447-1,1S12.448,20.5,13,20.5z"/>
	<path d="M13,27.5h34c0.552,0,1-0.447,1-1s-0.448-1-1-1H13c-0.552,0-1,0.447-1,1S12.448,27.5,13,27.5z"/>
	<path d="M13,34.5h34c0.552,0,1-0.447,1-1s-0.448-1-1-1H13c-0.552,0-1,0.447-1,1S12.448,34.5,13,34.5z"/>
	<path d="M13,41.5h34c0.552,0,1-0.447,1-1s-0.448-1-1-1H13c-0.552,0-1,0.447-1,1S12.448,41.5,13,41.5z"/>
	<path d="M47,46.5H33c-0.552,0-1,0.447-1,1s0.448,1,1,1h14c0.552,0,1-0.447,1-1S47.552,46.5,47,46.5z"/>
</g>
<g>
</g>
<g>
</g>
<g>
</g>
<g>
</g>
<g>
</g>
<g>
</g>
<g>
</g>
<g>
</g>
<g>
</g>
<g>
</g>
<g>
</g>
<g>
</g>
<g>
</g>
<g>
</g>
<g>
</g>
</svg>
