<?xml version="1.0" encoding="iso-8859-1"?>
<!-- Generator: Adobe Illustrator 19.0.0, SVG Export Plug-In . SVG Version: 6.00 Build 0)  -->
<svg version="1.1" id="Capa_1" xmlns="http://www.w3.org/2000/svg" xmlns:xlink="http://www.w3.org/1999/xlink" x="0px" y="0px"
	 viewBox="0 0 60 60" style="enable-background:new 0 0 60 60;" xml:space="preserve">
<g>
	<path d="M0,0.5v59h60v-59H0z M58,57.5H2v-55h56V57.5z"/>
	<path d="M13,13.5h34c0.553,0,1-0.447,1-1s-0.447-1-1-1H13c-0.553,0-1,0.447-1,1S12.447,13.5,13,13.5z"/>
	<path d="M18,18.5c-0.553,0-1,0.447-1,1s0.447,1,1,1h24c0.553,0,1-0.447,1-1s-0.447-1-1-1H18z"/>
	<path d="M13,27.5h34c0.553,0,1-0.447,1-1s-0.447-1-1-1H13c-0.553,0-1,0.447-1,1S12.447,27.5,13,27.5z"/>
	<path d="M46,33.5c0-0.553-0.447-1-1-1H15c-0.553,0-1,0.447-1,1s0.447,1,1,1h30C45.553,34.5,46,34.053,46,33.5z"/>
	<path d="M18,39.5c-0.553,0-1,0.447-1,1s0.447,1,1,1h24c0.553,0,1-0.447,1-1s-0.447-1-1-1H18z"/>
	<path d="M13,48.5h34c0.553,0,1-0.447,1-1s-0.447-1-1-1H13c-0.553,0-1,0.447-1,1S12.447,48.5,13,48.5z"/>
</g>
<g>
</g>
<g>
</g>
<g>
</g>
<g>
</g>
<g>
</g>
<g>
</g>
<g>
</g>
<g>
</g>
<g>
</g>
<g>
</g>
<g>
</g>
<g>
</g>
<g>
</g>
<g>
</g>
<g>
</g>
</svg>
