<?xml version="1.0" encoding="iso-8859-1"?>
<!-- Generator: Adobe Illustrator 19.0.0, SVG Export Plug-In . SVG Version: 6.00 Build 0)  -->
<svg version="1.1" id="Capa_1" xmlns="http://www.w3.org/2000/svg" xmlns:xlink="http://www.w3.org/1999/xlink" x="0px" y="0px"
	 viewBox="0 0 464 464" style="enable-background:new 0 0 464 464;" xml:space="preserve">
<rect x="32" y="48" style="fill:#00FFB0;" width="272" height="104"/>
<g>
	<path style="fill:#000A64;" d="M96.712,115.632h15.152l2.664,11.488h13.464h1.696h12.952l2.664-11.488h15.16l2.664,11.488h15.152
		l-16.488-54.112H144.48l-15.64,51.328L113.2,73.008H95.88L79.392,127.12h14.656L96.712,115.632z M148.8,100.816
		c1.328-5.16,2.664-11.656,3.832-17.152h0.336c1.328,5.408,2.664,11.992,3.992,17.152l0.912,3.744h-9.984L148.8,100.816z
		 M100.2,100.816c1.336-5.16,2.664-11.656,3.832-17.152h0.336c1.336,5.408,2.664,11.992,4,17.152l0.912,3.744h-9.992L100.2,100.816z
		"/>
	<path style="fill:#000A64;" d="M206.376,128.12c6.664,0,12.904-2.664,17.488-7.992l-7.832-8.664
		c-2.328,2.504-5.328,4.336-9.488,4.336c-7,0-11.656-5.664-11.656-15.824c0-9.824,5.496-15.656,11.984-15.656
		c3.504,0,5.832,1.336,8.496,3.664l7.832-8.824c-3.832-3.832-9.656-7.16-16.488-7.16c-13.984,0-26.48,10.328-26.48,28.472
		C180.232,118.96,192.224,128.12,206.376,128.12z"/>
	<path style="fill:#000A64;" d="M301.984,232.944L240,183.352v86.776L301.984,232.944z M256,216.648l18.016,14.416L256,241.872
		V216.648z"/>
	<path style="fill:#000A64;" d="M312,40H24v120h288V40z M296,144H40V56h256V144z"/>
	<rect x="56" y="112" style="fill:#000A64;" width="16" height="16"/>
	<path style="fill:#000A64;" d="M336,0H104v16h232v88h88v344h-96V288H216v160h-96V184h-16v280h112h112h112V104V84.688L355.312,0H336
		z M312,448h-80V304h80V448z"/>
	<rect x="344" y="336" style="fill:#000A64;" width="40" height="16"/>
	<rect x="360" y="368" style="fill:#000A64;" width="16" height="16"/>
	<rect x="392" y="368" style="fill:#000A64;" width="16" height="16"/>
	<rect x="344" y="400" style="fill:#000A64;" width="56" height="16"/>
	<rect x="160" y="368" style="fill:#000A64;" width="40" height="16"/>
	<rect x="168" y="336" style="fill:#000A64;" width="16" height="16"/>
	<rect x="136" y="336" style="fill:#000A64;" width="16" height="16"/>
	<rect x="144" y="304" style="fill:#000A64;" width="56" height="16"/>
	<rect x="328" y="224" style="fill:#000A64;" width="56" height="16"/>
	<rect x="160" y="224" style="fill:#000A64;" width="56" height="16"/>
	<rect x="352" y="256" style="fill:#000A64;" width="16" height="16"/>
	<rect x="384" y="256" style="fill:#000A64;" width="24" height="16"/>
	<rect x="136" y="256" style="fill:#000A64;" width="16" height="16"/>
	<rect x="168" y="256" style="fill:#000A64;" width="24" height="16"/>
	<polygon style="fill:#000A64;" points="272,364.28 280,358.952 280,376 296,376 296,329.048 256,355.72 256,400 248,400 248,416 
		272,416 	"/>
</g>
<g>
</g>
<g>
</g>
<g>
</g>
<g>
</g>
<g>
</g>
<g>
</g>
<g>
</g>
<g>
</g>
<g>
</g>
<g>
</g>
<g>
</g>
<g>
</g>
<g>
</g>
<g>
</g>
<g>
</g>
</svg>
