<?xml version="1.0" encoding="iso-8859-1"?>
<!-- Generator: Adobe Illustrator 19.0.0, SVG Export Plug-In . SVG Version: 6.00 Build 0)  -->
<svg version="1.1" id="Capa_1" xmlns="http://www.w3.org/2000/svg" xmlns:xlink="http://www.w3.org/1999/xlink" x="0px" y="0px"
	 viewBox="0 0 448 448" style="enable-background:new 0 0 448 448;" xml:space="preserve">
<polygon style="fill:#FFDC69;" points="336,0 104,0 104,8 104,40 24,40 24,144 104,144 104,176 104,448 216,448 312,448 424,448 
	424,88 424,80 344,0 "/>
<rect x="24" y="40" style="fill:#FF8C5A;" width="272" height="104"/>
<rect x="216" y="288" style="fill:#FEEC9F;" width="96" height="160"/>
<polygon style="fill:#FFFFFF;" points="240,248 240,192 280,224 "/>
<polygon style="fill:#FFB855;" points="344,0 336,0 336,88 424,88 424,80 "/>
<g>
	<polygon style="fill:#FFFFFF;" points="264,408 240,408 240,392 248,392 248,347.72 288,321.048 288,368 272,368 272,350.952 
		264,356.28 	"/>
	<rect x="48" y="104" style="fill:#FFFFFF;" width="16" height="16"/>
	<path style="fill:#FFFFFF;" d="M86.712,119.96l2.664-11.488H103.2l2.664,11.488h12.992h3.96h12.488l2.664-11.488H151.8
		l2.664,11.488h16.944l-16.992-55.792h-18.56l-15.016,49.288l-15.008-49.288H87.264L70.6,118.872l-0.328,1.088H86.712z
		 M100.208,95.72H92.36l0.656-2.696c1.112-4.288,2.224-9.552,3.224-14.28c0.376,1.608,0.744,3.272,1.12,4.928
		c0.72,3.2,1.464,6.512,2.192,9.336L100.208,95.72z M148.8,95.72h-7.84l0.656-2.696c1.104-4.288,2.216-9.528,3.216-14.272
		c0.376,1.592,0.744,3.232,1.112,4.88c0.728,3.216,1.472,6.536,2.2,9.376L148.8,95.72z"/>
	<path style="fill:#FFFFFF;" d="M216.976,112.112l-8.936-9.888l-0.624,0.664c-2.544,2.736-5.448,4.064-8.864,4.064
		c-6.776,0-10.816-5.6-10.816-14.984c0-8.72,4.576-14.816,11.144-14.816c3.32,0,5.504,1.328,7.936,3.456l0.632,0.552l8.904-10.04
		l-0.56-0.56c-4.704-4.704-10.928-7.408-17.08-7.408c-13.576,0-27.32,10.072-27.32,29.312c0,17.304,10.592,28.48,26.984,28.48
		c7.096,0,13.528-2.944,18.128-8.288L216.976,112.112z"/>
</g>
<g>
	<rect x="336" y="328" style="fill:#FEEC9F;" width="40" height="16"/>
	<rect x="352" y="360" style="fill:#FEEC9F;" width="16" height="16"/>
	<rect x="384" y="360" style="fill:#FEEC9F;" width="16" height="16"/>
	<rect x="336" y="392" style="fill:#FEEC9F;" width="56" height="16"/>
	<rect x="152" y="360" style="fill:#FEEC9F;" width="40" height="16"/>
	<rect x="160" y="328" style="fill:#FEEC9F;" width="16" height="16"/>
	<rect x="128" y="328" style="fill:#FEEC9F;" width="16" height="16"/>
	<rect x="136" y="296" style="fill:#FEEC9F;" width="56" height="16"/>
	<rect x="320" y="216" style="fill:#FEEC9F;" width="56" height="16"/>
	<rect x="152" y="216" style="fill:#FEEC9F;" width="56" height="16"/>
	<rect x="344" y="248" style="fill:#FEEC9F;" width="16" height="16"/>
	<rect x="376" y="248" style="fill:#FEEC9F;" width="24" height="16"/>
	<rect x="128" y="248" style="fill:#FEEC9F;" width="16" height="16"/>
	<rect x="160" y="248" style="fill:#FEEC9F;" width="24" height="16"/>
</g>
<g>
</g>
<g>
</g>
<g>
</g>
<g>
</g>
<g>
</g>
<g>
</g>
<g>
</g>
<g>
</g>
<g>
</g>
<g>
</g>
<g>
</g>
<g>
</g>
<g>
</g>
<g>
</g>
<g>
</g>
</svg>
