<?xml version="1.0" encoding="iso-8859-1"?>
<!-- Generator: Adobe Illustrator 19.0.0, SVG Export Plug-In . SVG Version: 6.00 Build 0)  -->
<svg version="1.1" id="Capa_1" xmlns="http://www.w3.org/2000/svg" xmlns:xlink="http://www.w3.org/1999/xlink" x="0px" y="0px"
	 viewBox="0 0 360 360" style="enable-background:new 0 0 360 360;" xml:space="preserve">
<g id="XMLID_868_">
	<path id="XMLID_869_" d="M345.25,124.552h-50.5V77.834L211.727,0H14.75v360h280v-52.722h50.5V124.552z M315.25,277.278h-210
		V154.552h210V277.278z"/>
	<path id="XMLID_872_" d="M139.15,228.154h22.32l5.94,15.931h12.78l-24.3-63.9h-10.98l-24.39,63.9h12.78L139.15,228.154z
		 M150.4,194.314l8.82,25.11h-18L150.4,194.314z"/>
	<path id="XMLID_875_" d="M199.63,228.154h22.32l5.94,15.931h12.78l-24.3-63.9h-10.98l-24.39,63.9h12.78L199.63,228.154z
		 M210.88,194.314l8.82,25.11h-18L210.88,194.314z"/>
	<path id="XMLID_878_" d="M250.165,234.23c2.73,3.091,5.985,5.596,9.765,7.516c3.78,1.921,7.949,2.88,12.51,2.88
		c2.579,0,5.22-0.331,7.92-0.99c2.7-0.659,5.234-1.62,7.605-2.88c2.37-1.26,4.5-2.805,6.39-4.635c1.89-1.83,3.344-3.945,4.365-6.346
		l-10.17-5.85c-0.72,1.741-1.68,3.226-2.88,4.455c-1.201,1.23-2.506,2.235-3.915,3.015c-1.411,0.78-2.896,1.351-4.455,1.71
		c-1.561,0.36-3.06,0.54-4.5,0.54c-2.76,0-5.296-0.599-7.605-1.8c-2.311-1.199-4.29-2.79-5.94-4.77
		c-1.651-1.98-2.925-4.275-3.825-6.886c-0.9-2.609-1.35-5.324-1.35-8.145c0-2.521,0.389-5.055,1.17-7.605
		c0.779-2.549,1.935-4.829,3.465-6.84c1.53-2.01,3.45-3.645,5.76-4.905c2.309-1.26,5.024-1.89,8.145-1.89
		c1.44,0,2.909,0.166,4.41,0.495c1.499,0.33,2.939,0.854,4.32,1.575c1.379,0.72,2.669,1.695,3.87,2.925
		c1.2,1.23,2.219,2.745,3.06,4.545l9.54-6.57c-2.101-4.14-5.296-7.499-9.585-10.08c-4.291-2.579-9.376-3.869-15.255-3.869
		c-4.981,0-9.42,0.931-13.32,2.789c-3.901,1.861-7.2,4.291-9.9,7.29c-2.7,3.001-4.756,6.406-6.165,10.216
		c-1.41,3.811-2.115,7.665-2.115,11.564c0,4.081,0.765,8.086,2.295,12.016C245.306,227.63,247.435,231.141,250.165,234.23z"/>
</g>
<g>
</g>
<g>
</g>
<g>
</g>
<g>
</g>
<g>
</g>
<g>
</g>
<g>
</g>
<g>
</g>
<g>
</g>
<g>
</g>
<g>
</g>
<g>
</g>
<g>
</g>
<g>
</g>
<g>
</g>
</svg>
