<svg xmlns="http://www.w3.org/2000/svg" style="display: none;"><symbol id="coin" viewBox="0 0 512 512"><title>coin</title><circle style="fill:#FEA921;" cx="397.21" cy="163.069" r="114.79"/><path style="fill:#FF901D;" d="M478.379,81.898c-28.366-28.366-67.883-38.775-104.44-31.242 c21.216,4.372,41.436,14.78,57.898,31.242c44.828,44.828,44.828,117.51,0,162.338c-16.462,16.462-36.682,26.871-57.898,31.243 c36.557,7.532,76.074-2.876,104.44-31.243C523.207,199.408,523.207,126.727,478.379,81.898z"/><path style="fill:#DD7219;" d="M395.825,230.421c-23.324-0.376-39.124-12.979-39.124-22.195c0-4.515,3.95-10.722,8.652-10.722 c6.207,0,11.286,13.167,30.471,14.671v-44.202c-16.928-6.019-35.738-12.791-35.738-36.867c0-23.7,17.869-33.104,35.738-34.986 v-5.455c0-2.257,2.257-4.326,5.455-4.326c2.821,0,5.643,2.069,5.643,4.326v5.079c12.791,0.376,30.848,4.326,30.848,13.543 c0,3.574-2.633,10.721-8.276,10.721c-4.514,0-9.404-6.019-22.571-6.959v38.183c16.364,6.019,34.233,14.295,34.233,39.876 c0,23.136-13.919,35.926-34.233,38.748v6.395c0,2.257-2.821,4.326-5.643,4.326c-3.198,0-5.455-2.069-5.455-4.326L395.825,230.421 L395.825,230.421z M396.954,147.659v-34.233c-10.534,1.316-18.057,6.019-18.057,15.8 C378.897,139.947,386.985,143.897,396.954,147.659z M405.794,172.111v39.688c10.157-1.881,16.552-7.9,16.552-18.622 C422.347,181.328,415.011,176.061,405.794,172.111z"/><path style="fill:#FED9A8;" d="M297.043,212.371c-12.469,12.469-26.628,26.631-34.433,34.44c-3.818,3.82-8.995,5.966-14.463,5.966 h-0.282c-9.022,0-19.589-8.736-21.915-17.453l-0.006-78.929l29.078-23.928l33.065-5.075c0,0,56.078-11.105,72.784-18.945 c4.189-1.965,13.065-29.574-8.563-31.755c-25.244-2.3-83.264-9.19-98.406-11.004c-10.388-1.244-20.831,1.827-28.892,8.496 l-73.791,61.047c-10.637,8.8-18.305,20.659-21.979,33.967c-8.229,29.806-23.979,84.114-34.98,105.08l-54.955,54.955l95.143,95.143 l26.461-26.461c4.973-4.973,11.123-8.608,17.878-10.567l55.264-18.609c17.361-5.956,32.643-16.777,44.027-31.174l27.972-35.376 l81.768-81.768c9.423-9.423,13.429-20.694,4.007-30.117C376.974,171.866,322.76,186.654,297.043,212.371z"/><path style="fill:#F4C892;" d="M391.825,190.307c-2.542-3.157-6.238-5.339-10.746-6.66c-11.389-3.336-23.691,0.219-32.043,8.65 c-22.145,22.354-76.283,76.597-76.283,76.597l-27.972,35.376c-11.384,14.397-26.667,25.218-44.027,31.174l-55.264,18.609 c-0.049,0.014-0.098,0.028-0.147,0.043c-9.448,2.778-19.652,0.416-26.616-6.547L69.86,298.682l-30.554,30.554l95.143,95.143 l26.461-26.461c0.683-0.683,1.391-1.338,2.119-1.967c0.024-0.021,0.05-0.04,0.074-0.061c0.713-0.614,1.445-1.204,2.195-1.77 c4.038-3.045,8.602-5.352,13.49-6.769l55.264-18.609c17.361-5.956,32.643-16.777,44.027-31.174l27.972-35.376l81.768-81.768 C397.241,211.001,401.248,199.73,391.825,190.307z"/><path style="fill:#F7E7D5;" d="M384.586,217.878c-10.852-10.852-28.447-10.852-39.299,0l-12.346,12.346 c-5.587,5.587-5.587,14.644,0,20.231l12.423,12.423l42.11-42.11L384.586,217.878z"/><path style="fill:#2D5871;" d="M113.18,460.66L3.061,350.541c-4.081-4.081-4.081-10.697,0-14.778l30.399-30.399 c4.081-4.081,10.697-4.081,14.778,0l110.119,110.119c4.081,4.081,4.081,10.697,0,14.778l-30.399,30.399 C123.877,464.741,117.261,464.741,113.18,460.66z"/><path style="fill:#234C60;" d="M158.358,415.483l-110.12-110.12c-4.081-4.081-10.697-4.081-14.778,0l-22.335,22.335 c4.081-4.081,10.697-4.081,14.778,0l110.119,110.119c4.081,4.081,4.081,10.697,0,14.778l22.335-22.335 C162.439,426.18,162.439,419.564,158.358,415.483z"/><circle style="fill:#FFFFFF;" cx="116.66" cy="417.809" r="14.843"/><path style="fill:#FEA921;" d="M288.081,127.394l0.007-0.001c0,0,56.078-11.105,72.784-18.944 c4.189-1.965,13.065-29.574-8.563-31.755c-7.096-0.647-16.783-1.656-27.379-2.813c-3.067,2.491-6.036,5.162-8.891,8.018 C302.822,95.117,293.504,110.759,288.081,127.394z"/></symbol><symbol id="lecture" viewBox="0 0 512 512"><title>lecture</title><path style="fill:#FF757C;" d="M255.999,512C397,512,512,397,512,255.999C512,115,397,0,255.999,0C115,0,0,115,0,255.999 C0,397,115,512,255.999,512z"/><path style="fill:#F0B97D;" d="M243.213,104.408h5.08h15.412h5.078l2.073,21.55l3.68,2.952l7.759,4.941l-26.295,62.11l-26.293-62.11 l7.759-4.941l3.68-2.95l2.07-21.55L243.213,104.408z"/><path style="fill:#ECF0F1;" d="M234.775,130.504l-21.193,6.764l42.414,58.69l36.087-60.662l-14.973-4.745l-13.187,9.307h-15.806 L234.775,130.504z"/><path style="fill:#FF5B61;" d="M251.265,139.004l1.812,4.469l-4.026,50.932l6.947,5.318l6.947-5.318l-4.026-50.932l1.812-4.469 l-4.734-0.187L251.265,139.004z"/><path style="fill:#15BDB1;" d="M235.139,130.387l-37.487,11.963c0,0-4.853,2.522-6.319,10.195 c-1.402,7.349-2.13,14.858-3.237,24.992c17.881,16.408,41.718,26.425,67.898,26.425s50.021-10.017,67.9-26.425 c-1.109-10.133-1.834-17.643-3.237-24.992c-1.466-7.673-6.319-10.195-6.319-10.195l-37.231-11.8l-21.113,61.916l-20.858-62.079 H235.139z"/><path style="fill:#20D0C2;" d="M235.139,130.387l-8.085,2.582l-1.554,20.516c0,0,0.428,1.684,1.711,1.535l7.298,2.743 c0,0,0.478,0.478,0.051,1.083l-6.244,4.28l21.577,40.668c2.02,0.115,4.057,0.174,6.105,0.174c2.05,0,4.083-0.057,6.105-0.174 l21.579-40.668l-6.244-4.28c-0.428-0.604,0.053-1.083,0.053-1.083l7.296-2.743c1.283,0.15,1.713-1.535,1.713-1.535l-1.548-20.45 l-7.836-2.483l-21.113,61.916l-20.858-62.079L235.139,130.387z"/><path style="fill:#FED198;" d="M226.218,60.58c0,2.002-0.732,3.962-0.677,5.887c-6.853-1.272-3.543,19.078,0.333,21.879 c0.309,0.223,1.065-0.271,1.704-0.681c1.343,7.485,12.821,27.49,20.117,35.908c2.028,2.337,14.422,2.3,16.426,0.09 c7.477-8.228,18.937-28.467,20.289-35.996c0.639,0.41,1.398,0.904,1.704,0.681c3.878-2.798,7.188-23.151,0.335-21.879 c0.055-1.925-0.677-3.885-0.677-5.887c-0.379-15.804-14.7-23.693-29.778-23.761c-15.079,0.066-29.399,7.957-29.779,23.761 L226.218,60.58z"/><path style="fill:#666666;" d="M235.401,40.322c-2.159-0.251-9.966,2.139-10.903,10.398c-0.935,8.259-0.487,15.868-0.487,15.868 s4.571,1.155,5.148,5.843c0.575,4.687,0.165,4.687,0.165,4.687l1.656-0.37l1.18-8.039c6.842-4.286-0.051-10.636,6.791-12.122 c18.479,13.169,34.786,10.916,42.139,4.721c0,0-1.718,6.48-0.392,8.791c1.321,2.311,0.534,5.953,0.534,5.953l1.72-0.082 c0,0-0.313-9.545,3.504-9.501c14.499-23.938-31.399-53.672-51.051-26.145L235.401,40.322z"/><g> <path style="fill:#FFFFFF;" d="M240.964,122.88c0.538,0.04-6.257,7.704-6.257,7.704l5.785,19.806l15.504-11.571 C247.468,134.634,242.375,129.21,240.964,122.88z"/> <path style="fill:#FFFFFF;" d="M271.031,122.88c-0.536,0.04,6.257,7.704,6.257,7.704l-5.783,19.806l-15.509-11.571 C264.529,134.634,269.62,129.21,271.031,122.88z"/> </g><path style="fill:#666666;" d="M247.561,105.078l4.24-2.886c1.303,1.217,7.369,1.197,8.667-0.011l3.911,2.897 c1.896,1.404,3.854,1.887,4.341,4.07l1.554,6.967c0.487,2.185-3.836,9.529-6.218,9.529h-16.816c-2.381,0-5.651-7.007-5.272-9.218 l1.25-7.278C243.599,106.939,245.605,106.412,247.561,105.078z M254.903,106.71L254.903,106.71l-8.228,4.321 c0,0,0.384,4.782,1.449,6.279c1.065,1.499,5.259-0.287,5.259-0.287s0-3.746,1.219-3.686c0.009,0.002,2.732,0.002,2.743,0 c1.217-0.06,1.217,3.686,1.217,3.686s4.191,1.786,5.259,0.287c1.067-1.499,1.449-6.279,1.449-6.279l-8.228-4.321l-1.067,0.3 l-1.065-0.3H254.903z"/><path style="fill:#CCCCCC;" d="M201.026,118.962l25.197-5.73v4.33l-24.242,5.73c-0.593,0.049-4.546,1.658-5.785,2.899 c-1.239,1.239-2.011,2.95-2.011,4.831c0,12.338,0.02,24.668,0.02,36.986h-2.187h-2.167v-2.167v-34.819 c0-3.076,1.259-5.871,3.281-7.893C195.154,121.107,199.383,119.16,201.026,118.962z"/><path style="fill:#FBB429;" d="M211.664,113.966l19.449-4.099c1.623-0.342,3.226,0.706,3.567,2.324l0.595,2.831 c0.342,1.623-0.703,3.228-2.324,3.567l-19.449,4.101c-1.621,0.342-3.223-0.706-3.565-2.324l-0.598-2.831 c-0.342-1.621,0.706-3.226,2.324-3.567V113.966z"/><path style="fill:#666666;" d="M192.01,158.927c5.766,0,10.442,4.674,10.442,10.442l-0.002,0.068h-20.878l-0.002-0.068 C181.57,163.603,186.242,158.927,192.01,158.927z"/><g> <path style="fill:#FBB429;" d="M159.579,167.944h192.839v14.131H159.579V167.944z"/> <path style="fill:#FBB429;" d="M184.655,182.073h142.686v90.213c-21.122,11.769-45.446,18.479-71.342,18.479 c-25.894,0-50.22-6.712-71.342-18.479v-90.213H184.655z"/> </g><g> <path style="fill:#F5A209;" d="M159.579,182.073l25.076,15.892v-15.892H159.579z M352.418,182.073L352.418,182.073l-25.078,15.892 v-15.892H352.418z"/> <path style="fill:#F5A209;" d="M184.655,182.073h142.686v6.002H184.655V182.073z"/> </g><path style="fill:#FED198;" d="M157.423,283.522c0,1.632-0.593,3.228-0.551,4.791c-9.035-4.941-0.897,15.859,2.256,18.133 c0.871,0.624,2.597-1.852,2.906-0.794c2.377,8.217,5.128,12.801,8.25,16.741l-0.708,7.366l-2.999,2.403l-6.317,4.024h42.816 l-6.317-4.024l-2.994-2.403l-0.708-7.366c3.118-3.94,5.869-8.524,8.248-16.741c0.306-1.058,2.033,1.42,2.904,0.794 c3.153-2.273,11.291-23.074,2.253-18.133c0.046-1.563-0.549-3.16-0.549-4.791c-0.309-12.867-0.706-26.279-24.244-26.335 c-23.539,0.055-23.938,13.467-24.244,26.335H157.423z"/><path style="fill:#666666;" d="M199.366,260.038c9.909-1.155,13.461,20.838,7.503,28.059l-8.683,26.048l-5.894,5.924l-20.628,0.09 l-5.973-4.899l-8.819-26.945c-11.805-19.489,16.51-48.134,42.492-28.275L199.366,260.038z"/><path style="fill:#15BDB1;" d="M164.686,333.364l-30.517,9.743c0,0-3.953,2.053-5.146,8.301c-1.142,5.982-1.733,12.098-2.635,20.351 h110.561l0.002-0.004c-0.904-8.248-1.495-14.365-2.637-20.346c-1.193-6.246-5.139-8.301-5.139-8.301l-30.314-9.609l-34.171-0.132 L164.686,333.364z"/><path style="fill:#FFFFFF;" d="M169.946,324.212h23.523c1.36,0,2.013,1.078,2.476,2.196l2.91,7.091l-34.173-0.132l2.785-6.956 c0.452-1.131,1.116-2.196,2.476-2.196L169.946,324.212z"/><path style="fill:#FED198;" d="M306.084,283.522c0,1.632-0.595,3.228-0.551,4.791c-9.035-4.941-0.897,15.859,2.256,18.133 c0.871,0.624,2.595-1.852,2.904-0.794c2.379,8.217,5.128,12.801,8.25,16.741l-0.706,7.366l-3.001,2.403l-6.317,4.024h42.816 l-6.315-4.024l-2.994-2.403l-0.708-7.366c3.118-3.94,5.869-8.524,8.248-16.741c0.306-1.058,2.035,1.42,2.904,0.794 c3.153-2.273,11.291-23.074,2.253-18.133c0.044-1.563-0.549-3.16-0.549-4.791c-0.309-12.867-0.706-26.279-24.247-26.335 C306.789,257.242,306.393,270.654,306.084,283.522z"/><path style="fill:#666666;" d="M348.026,260.038c9.909-1.155,13.461,20.838,7.503,28.059l-8.685,26.048l-5.896,5.924l-20.626,0.09 l-5.973-4.899l-8.819-26.945c-11.805-19.489,16.51-48.134,42.492-28.275L348.026,260.038z"/><path style="fill:#15BDB1;" d="M313.347,333.364l-30.519,9.743c0,0-3.951,2.053-5.144,8.301c-1.142,5.982-1.733,12.098-2.637,20.351 h110.561l0.002-0.004c-0.904-8.248-1.495-14.365-2.637-20.346c-1.191-6.246-5.139-8.301-5.139-8.301l-30.314-9.609l-34.171-0.132 L313.347,333.364z"/><path style="fill:#FFFFFF;" d="M318.607,324.212h23.523c1.363,0,2.013,1.078,2.476,2.196l2.908,7.091l-34.171-0.132l2.783-6.956 c0.454-1.131,1.116-2.196,2.478-2.196L318.607,324.212z"/><path style="fill:#FED198;" d="M74.473,335.466c0,2.05-0.75,4.059-0.695,6.026c-11.362-6.215-1.129,19.941,2.838,22.8 c1.096,0.789,3.265-2.328,3.651-0.997c2.988,10.332,6.447,16.095,10.374,21.05l-0.889,9.267l-3.77,3.023l-7.946,5.058h53.842 l-7.942-5.058l-3.766-3.023l-0.891-9.267c3.922-4.952,7.382-10.718,10.374-21.05c0.386-1.332,2.56,1.786,3.651,0.997 c3.964-2.86,14.199-29.013,2.835-22.8c0.057-1.967-0.69-3.975-0.69-6.026c-0.39-16.186-0.891-33.048-30.491-33.117 c-29.604,0.071-30.103,16.931-30.488,33.117H74.473z"/><path style="fill:#666666;" d="M127.217,305.934c12.46-1.455,16.927,26.204,9.437,35.286l-10.918,32.753l-7.415,7.452l-25.938,0.112 l-7.51-6.16l-11.09-33.888C58.94,316.982,94.545,280.962,127.217,305.934z"/><path style="fill:#15BDB1;" d="M83.605,398.142l-38.375,12.25c0,0-4.967,2.584-6.471,10.44c-1.435,7.523-2.181,15.213-3.314,25.589 H174.48l0.002-0.002c-1.135-10.374-1.881-18.064-3.318-25.587c-1.499-7.856-6.462-10.44-6.462-10.44l-38.122-12.08l-42.972-0.168 L83.605,398.142z"/><path style="fill:#FFFFFF;" d="M90.222,386.631h29.582c1.715,0,2.533,1.358,3.115,2.765l3.658,8.916l-42.974-0.168l3.501-8.747 c0.569-1.422,1.402-2.765,3.115-2.765L90.222,386.631z"/><path style="fill:#FED198;" d="M225.51,335.466c0,2.05-0.75,4.059-0.695,6.026c-11.362-6.215-1.131,19.941,2.838,22.8 c1.094,0.789,3.265-2.328,3.651-0.997c2.99,10.332,6.449,16.095,10.374,21.05l-0.889,9.267l-3.77,3.023l-7.946,5.058h53.842 l-7.942-5.058l-3.766-3.023l-0.891-9.267c3.922-4.952,7.384-10.718,10.372-21.05c0.386-1.332,2.56,1.786,3.651,0.997 c3.964-2.86,14.199-29.013,2.835-22.8c0.055-1.967-0.692-3.975-0.692-6.026c-0.388-16.186-0.889-33.048-30.488-33.117 c-29.6,0.071-30.1,16.931-30.486,33.117H225.51z"/><path style="fill:#666666;" d="M278.252,305.934c12.46-1.455,16.927,26.204,9.439,35.286l-10.921,32.753l-7.413,7.452l-25.938,0.112 l-7.512-6.16l-11.09-33.888C209.975,316.982,245.581,280.962,278.252,305.934z"/><path style="fill:#15BDB1;" d="M234.641,398.142l-38.377,12.25c0,0-4.967,2.584-6.471,10.44c-1.433,7.523-2.181,15.213-3.314,25.589 h139.035l0.002-0.002c-1.133-10.374-1.881-18.064-3.318-25.587c-1.497-7.856-6.462-10.44-6.462-10.44l-38.122-12.08l-42.972-0.168 V398.142z"/><path style="fill:#FFFFFF;" d="M241.257,386.631h29.582c1.715,0,2.536,1.358,3.115,2.765l3.658,8.916l-42.972-0.168l3.501-8.747 c0.569-1.422,1.402-2.765,3.113-2.765L241.257,386.631z"/><path style="fill:#FED198;" d="M376.544,335.466c0,2.05-0.747,4.059-0.695,6.026c-11.362-6.215-1.129,19.941,2.838,22.8 c1.096,0.789,3.265-2.328,3.651-0.997c2.988,10.332,6.449,16.095,10.376,21.05l-0.889,9.267l-3.77,3.023l-7.946,5.058h53.842 l-7.94-5.058l-3.768-3.023l-0.891-9.267c3.922-4.952,7.384-10.718,10.374-21.05c0.384-1.332,2.56,1.786,3.651,0.997 c3.969-2.86,14.199-29.013,2.835-22.8c0.057-1.967-0.69-3.975-0.69-6.026c-0.388-16.186-0.889-33.048-30.488-33.117 c-29.6,0.071-30.1,16.931-30.488,33.117H376.544z"/><path style="fill:#666666;" d="M429.286,305.934c12.462-1.455,16.929,26.204,9.439,35.286l-10.921,32.753l-7.413,7.452 l-25.938,0.112l-7.512-6.16l-11.088-33.888C361.006,316.982,396.614,280.962,429.286,305.934z"/><path style="fill:#15BDB1;" d="M385.676,398.142l-38.377,12.25c0,0-4.967,2.584-6.467,10.44c-1.438,7.523-2.183,15.213-3.316,25.589 h139.035l0.002-0.002c-1.133-10.374-1.879-18.064-3.316-25.587c-1.499-7.856-6.465-10.44-6.465-10.44l-38.122-12.08l-42.97-0.168 L385.676,398.142z"/><path style="fill:#FFFFFF;" d="M392.293,386.631h29.58c1.715,0,2.533,1.358,3.115,2.765l3.66,8.916l-42.974-0.168l3.501-8.747 c0.569-1.422,1.402-2.765,3.115-2.765L392.293,386.631z"/></symbol><symbol id="money" viewBox="0 0 512 512"><title>money</title><path style="fill:#0E9347;" d="M488.727,325.818H23.273C10.473,325.818,0,315.345,0,302.545v-256 c0-12.8,10.473-23.273,23.273-23.273h465.455c12.8,0,23.273,10.473,23.273,23.273v256C512,315.345,501.527,325.818,488.727,325.818z "/><path style="fill:#0D8944;" d="M430.545,232.727c-26.764,0-51.2,12.8-65.164,33.745C353.745,260.655,340.945,256,325.818,256 c-40.727,0-74.473,30.255-80.291,69.818h243.2c11.636,0,20.945-8.145,23.273-19.782 C507.345,265.309,472.436,232.727,430.545,232.727z"/><path style="fill:#3BB54A;" d="M442.182,302.545H69.818c0-25.6-20.945-46.545-46.545-46.545V93.091 c25.6,0,46.545-20.945,46.545-46.545h372.364c0,25.6,20.945,46.545,46.545,46.545V256C463.127,256,442.182,276.945,442.182,302.545z "/><g> <path style="fill:#0E9347;" d="M430.545,232.727c-26.764,0-51.2,12.8-65.164,33.745C353.745,260.655,340.945,256,325.818,256 c-32.582,0-60.509,18.618-73.309,46.545h189.673c0-25.6,19.782-45.382,45.382-46.545 C472.436,242.036,452.655,232.727,430.545,232.727z"/> <ellipse style="fill:#0E9347;" cx="256" cy="174.545" rx="93.091" ry="104.727"/> <circle style="fill:#0E9347;" cx="116.364" cy="174.545" r="23.273"/> <circle style="fill:#0E9347;" cx="395.636" cy="174.545" r="23.273"/> </g><path style="fill:#89C763;" d="M267.636,162.909h-23.273c-6.982,0-11.636-4.655-11.636-11.636c0-6.982,4.655-11.636,11.636-11.636 h34.909c6.982,0,11.636-4.655,11.636-11.636c0-6.982-4.655-11.636-11.636-11.636h-11.636c0-6.982-4.655-11.636-11.636-11.636 c-6.982,0-11.636,4.655-11.636,11.636c-19.782,0-34.909,15.127-34.909,34.909s15.127,34.909,34.909,34.909h23.273 c6.982,0,11.636,4.655,11.636,11.636c0,6.982-4.655,11.636-11.636,11.636h-34.909c-6.982,0-11.636,4.655-11.636,11.636 c0,6.982,4.655,11.636,11.636,11.636h11.636c0,6.982,4.655,11.636,11.636,11.636c6.982,0,11.636-4.655,11.636-11.636 c19.782,0,34.909-15.127,34.909-34.909S287.418,162.909,267.636,162.909z"/><circle style="fill:#FFCA5D;" cx="302.545" cy="337.455" r="81.455"/><circle style="fill:#F6B545;" cx="407.273" cy="314.182" r="81.455"/><path style="fill:#FFCB5B;" d="M407.273,232.727c-45.382,0-81.455,36.073-81.455,81.455s36.073,81.455,81.455,81.455 s81.455-36.073,81.455-81.455S452.655,232.727,407.273,232.727z M407.273,372.364c-32.582,0-58.182-25.6-58.182-58.182 S374.691,256,407.273,256s58.182,25.6,58.182,58.182S439.855,372.364,407.273,372.364z"/><path style="fill:#F6B545;" d="M407.273,394.473L407.273,394.473c45.382,1.164,81.455-36.073,81.455-80.291h-1.164 c-5.818,0-10.473,4.655-11.636,10.473c-2.327,16.291-10.473,31.418-22.109,41.891c-9.309,9.309-22.109,15.127-36.073,17.454 C411.927,384,407.273,388.655,407.273,394.473z"/><path style="fill:#FFE27A;" d="M407.273,233.891L407.273,233.891c-45.382-1.164-81.455,36.073-81.455,80.291h1.164 c5.818,0,10.473-4.655,11.636-10.473c2.327-16.291,10.473-31.418,22.109-41.891c9.309-9.309,22.109-15.127,36.073-17.455 C402.618,244.364,407.273,239.709,407.273,233.891z"/><path style="fill:#F19920;" d="M357.236,322.327c0-32.582,25.6-58.182,58.182-58.182c13.964,0,26.764,4.655,37.236,13.964 C441.018,264.145,425.891,256,407.273,256c-32.582,0-58.182,25.6-58.182,58.182c0,18.618,8.145,33.745,20.945,44.218 C361.891,349.091,357.236,336.291,357.236,322.327z"/><path style="fill:#FFCB5B;" d="M442.182,350.255c-1.164,0-2.327,0-3.491-1.164c-2.327-2.327-2.327-5.818,0-8.145 c6.982-6.982,10.473-17.455,10.473-26.764c0-3.491,2.327-5.818,5.818-5.818c3.491,0,5.818,2.327,5.818,5.818 c0,12.8-4.655,25.6-12.8,34.909C445.673,350.255,443.345,350.255,442.182,350.255z"/><g> <path style="fill:#F19920;" d="M407.273,349.091c-6.982,0-11.636-4.655-11.636-11.636v-46.545c0-6.982,4.655-11.636,11.636-11.636 s11.636,4.655,11.636,11.636v46.545C418.909,344.436,414.255,349.091,407.273,349.091z"/> <path style="fill:#F19920;" d="M450.327,382.836c-8.145-29.091-29.091-52.364-55.855-62.836c-4.655-26.764-22.109-50.036-44.218-64 c-13.964,15.127-23.273,34.909-23.273,57.018c0,45.382,36.073,81.455,81.455,81.455 C423.564,395.636,437.527,390.982,450.327,382.836z"/> </g><g> <path style="fill:#E78825;" d="M370.036,358.4c-8.145-10.473-13.964-23.273-13.964-37.236c0-16.291,6.982-31.418,18.618-41.891 c-2.327-3.491-4.655-5.818-6.982-8.145c-11.636,10.473-18.618,25.6-18.618,43.055C349.091,332.8,357.236,347.927,370.036,358.4z"/> <path style="fill:#E78825;" d="M395.636,321.164v16.291c0,6.982,4.655,11.636,11.636,11.636s11.636-4.655,11.636-11.636v-2.327 C411.927,329.309,403.782,324.655,395.636,321.164z"/> </g><path style="fill:#F6B545;" d="M450.327,382.836c-2.327-8.145-4.655-15.127-9.309-22.109c-9.309,6.982-20.945,11.636-33.745,11.636 c-32.582,0-58.182-25.6-58.182-58.182c0-17.455,6.982-32.582,18.618-43.055c-5.818-5.818-11.636-10.473-18.618-13.964 c-13.964,15.127-23.273,34.909-23.273,57.018c0,45.382,36.073,81.455,81.455,81.455 C423.564,395.636,437.527,390.982,450.327,382.836z"/><path style="fill:#F19920;" d="M446.836,372.364c-8.145,5.818-18.618,9.309-29.091,11.636c-5.818,1.164-10.473,5.818-10.473,11.636 l0,0c16.291,0,30.255-4.655,43.055-12.8C449.164,379.345,448,375.855,446.836,372.364z"/><path style="fill:#FFCB5B;" d="M349.091,257.164c-13.964,15.127-23.273,34.909-23.273,57.018h1.164 c5.818,0,10.473-4.655,11.636-10.473c2.327-16.291,10.473-30.255,20.945-40.727C356.073,261.818,352.582,259.491,349.091,257.164z"/><circle style="fill:#F6B545;" cx="302.545" cy="337.455" r="81.455"/><path style="fill:#F19920;" d="M290.909,395.636c0,8.145,1.164,15.127,3.491,23.273c2.327,0,5.818,0,8.145,0 c45.382,0,81.455-36.073,81.455-81.455c0-8.145-1.164-15.127-3.491-23.273c-2.327,0-5.818,0-8.145,0 C326.982,314.182,290.909,350.255,290.909,395.636z"/><path style="fill:#FFCB5B;" d="M302.545,256c-45.382,0-81.455,36.073-81.455,81.455s36.073,81.455,81.455,81.455 S384,382.836,384,337.455S347.927,256,302.545,256z M302.545,395.636c-32.582,0-58.182-25.6-58.182-58.182 s25.6-58.182,58.182-58.182s58.182,25.6,58.182,58.182S335.127,395.636,302.545,395.636z"/><path style="fill:#F6B545;" d="M302.545,417.745L302.545,417.745C347.927,418.909,384,381.673,384,337.455h-1.164 c-5.818,0-10.473,4.655-11.636,10.473c-2.327,16.291-10.473,31.418-22.109,41.891c-9.309,9.309-22.109,15.127-36.073,17.455 C307.2,407.273,302.545,411.927,302.545,417.745z"/><path style="fill:#FFE27A;" d="M302.545,257.164L302.545,257.164c-45.382-1.164-81.455,36.073-81.455,80.291h1.164 c5.818,0,10.473-4.655,11.636-10.473c2.327-16.291,10.473-31.418,22.109-41.891c9.309-9.309,22.109-15.127,36.073-17.455 C297.891,267.636,302.545,262.982,302.545,257.164z"/><path style="fill:#F19920;" d="M252.509,345.6c0-32.582,25.6-58.182,58.182-58.182c13.964,0,26.764,4.655,37.236,13.964 c-11.636-13.964-26.764-22.109-45.382-22.109c-32.582,0-58.182,25.6-58.182,58.182c0,18.618,8.145,33.745,20.945,44.218 C257.164,372.364,252.509,359.564,252.509,345.6z"/><path style="fill:#FFCB5B;" d="M337.455,373.527c-1.164,0-2.327,0-3.491-1.164c-2.327-2.327-2.327-5.818,0-8.145 c6.982-6.982,10.473-17.455,10.473-26.764c0-3.491,2.327-5.818,5.818-5.818c3.491,0,5.818,2.327,5.818,5.818 c0,12.8-4.655,25.6-12.8,34.909C340.945,373.527,338.618,373.527,337.455,373.527z"/><path style="fill:#F19920;" d="M302.545,372.364c-6.982,0-11.636-4.655-11.636-11.636v-46.545c0-6.982,4.655-11.636,11.636-11.636 c6.982,0,11.636,4.655,11.636,11.636v46.545C314.182,367.709,309.527,372.364,302.545,372.364z"/><g> <path style="fill:#F6B545;" d="M356.073,315.345c2.327,6.982,4.655,13.964,4.655,22.109c0,32.582-25.6,58.182-58.182,58.182 c-3.491,0-8.145,0-11.636-1.164v1.164c0,8.145,1.164,15.127,3.491,23.273c2.327,0,5.818,0,8.145,0 c45.382,0,81.455-36.073,81.455-81.455c0-8.145-1.164-15.127-3.491-23.273c-2.327,0-5.818,0-8.145,0 C366.545,314.182,361.891,314.182,356.073,315.345z"/> <circle style="fill:#F6B545;" cx="360.727" cy="407.273" r="81.455"/> </g><path style="fill:#FFCB5B;" d="M360.727,325.818c-45.382,0-81.455,36.073-81.455,81.455s36.073,81.455,81.455,81.455 s81.455-36.073,81.455-81.455S406.109,325.818,360.727,325.818z M360.727,465.455c-32.582,0-58.182-25.6-58.182-58.182 s25.6-58.182,58.182-58.182s58.182,25.6,58.182,58.182S393.309,465.455,360.727,465.455z"/><path style="fill:#F6B545;" d="M360.727,487.564L360.727,487.564c45.382,1.164,81.455-36.073,81.455-80.291h-1.164 c-5.818,0-10.473,4.655-11.636,10.473c-2.327,16.291-10.473,31.418-22.109,41.891c-9.309,9.309-22.109,15.127-36.073,17.455 C365.382,477.091,360.727,481.745,360.727,487.564z"/><path style="fill:#FFE27A;" d="M360.727,326.982L360.727,326.982c-45.382-1.164-81.455,36.073-81.455,80.291h1.164 c5.818,0,10.473-4.655,11.636-10.473c2.327-16.291,10.473-31.418,22.109-41.891c9.309-9.309,22.109-15.127,36.073-17.455 C356.073,337.455,360.727,332.8,360.727,326.982z"/><path style="fill:#F19920;" d="M310.691,415.418c0-32.582,25.6-58.182,58.182-58.182c13.964,0,26.764,4.655,37.236,13.964 c-11.636-13.964-26.764-22.109-45.382-22.109c-32.582,0-58.182,25.6-58.182,58.182c0,18.618,8.145,33.745,20.945,44.218 C315.345,442.182,310.691,429.382,310.691,415.418z"/><path style="fill:#FFCB5B;" d="M395.636,443.345c-1.164,0-2.327,0-3.491-1.164c-2.327-2.327-2.327-5.818,0-8.145 c6.982-6.982,10.473-17.455,10.473-26.764c0-3.491,2.327-5.818,5.818-5.818s5.818,2.327,5.818,5.818c0,12.8-4.655,25.6-12.8,34.909 C399.127,443.345,396.8,443.345,395.636,443.345z"/><path style="fill:#F19920;" d="M360.727,442.182c-6.982,0-11.636-4.655-11.636-11.636V384c0-6.982,4.655-11.636,11.636-11.636 c6.982,0,11.636,4.655,11.636,11.636v46.545C372.364,437.527,367.709,442.182,360.727,442.182z"/></symbol><symbol id="money-bag" viewBox="0 0 497.68 497.68"><title>money-bag</title><path style="fill:#F2B233;" d="M464.04,404.82c0,97.6-96,92-215.2,92s-215.2,4.8-215.2-92c0-97.6,96-260,215.2-260 C368.04,145.62,464.04,308.02,464.04,404.82z"/><path style="fill:#DD981D;" d="M248.84,145.62c119.2,0,215.2,162.4,215.2,260s-96,92-215.2,92"/><path style="fill:#F2B233;" d="M144.04,44.82c0-47.2,47.2-44.8,104.8-44.8s104.8-2.4,104.8,44.8s-47.2,126.4-104.8,126.4 S144.04,92.02,144.04,44.82z"/><path style="fill:#DD981D;" d="M248.84,0.02c57.6,0,104.8-2.4,104.8,44.8s-47.2,126.4-104.8,126.4"/><path style="fill:#04AF76;" d="M340.84,154.42c0,8-6.4,14.4-14.4,14.4h-155.2c-8,0-14.4-6.4-14.4-14.4v-4c0-8,6.4-14.4,14.4-14.4 h156c8,0,14.4,6.4,14.4,14.4v4H340.84z"/><path style="fill:#008C61;" d="M168.84,136.82h158.4c8,0,14.4,6.4,14.4,14.4v4c0,8-8,14.4-16,14.4"/><circle style="fill:#04AF76;" cx="248.84" cy="339.22" r="96"/><path style="fill:#008C61;" d="M180.84,271.22c37.6-37.6,98.4-37.6,136,0s37.6,98.4,0,136"/><path style="fill:#FFF6E1;" d="M240.84,416.82v-20c-16-0.8-24.8-4-32-8l4.8-21.6c8,4,18.4,8,30.4,8c10.4,0,17.6-4,17.6-11.2 s-5.6-11.2-20-16c-20-6.4-32.8-16-32.8-33.6c0-16,7.2-28.8,31.2-32.8v-16.8h16v16c16,0.8,21.6,3.2,27.2,6.4l-4.8,20.8 c-4.8-2.4-12.8-6.4-26.4-6.4c-12,0-16,4.8-16,10.4c0,6.4,6.4,9.6,22.4,16c21.6,8,30.4,17.6,30.4,34.4s-8.8,30.4-32.8,34.4v20H240.84 z"/><g> <path style="fill:#FFEEBD;" d="M248.84,264.82v36.8c0,0,2.4,0,4,0c13.6,0,21.6,4,26.4,6.4l4.8-20.8c-6.4-3.2-11.2-6.4-27.2-6.4v-16 H248.84z"/> <path style="fill:#FFEEBD;" d="M259.24,327.22c-4-1.6-8-3.2-10.4-4v27.2c8,4,12.8,8,12.8,13.6c0,6.4-4.8,9.6-12.8,11.2v41.6h8 v-20.8c24-4,32.8-17.6,32.8-34.4C289.64,344.82,280.84,335.22,259.24,327.22z"/> </g></symbol></svg>