<svg xmlns="http://www.w3.org/2000/svg" style="display: none;"><symbol id="python-1" viewBox="0 0 512 512"><title>python-1</title><path d="M0,0v512h512V0H0z M480,480H32V160h448V480z M480,128H32V32h448V128z"/><rect x="64" y="64" width="32" height="32"/><rect x="128" y="64" width="32" height="32"/><rect x="192" y="64" width="256" height="32"/><path d="M176,352h8c30.928,0,56-25.072,56-56c0-30.928-25.072-56-56-56h-40v160h32V352z M176,272h8c13.255,0,24,10.745,24,24 s-10.745,24-24,24h-8V272z"/><polygon points="304,400 336,400 336,342.624 368,310.624 368,240 336,240 336,297.376 320,313.376 304,297.376 304,240 272,240 272,310.624 304,342.624 "/></symbol><symbol id="python" viewBox="0 0 512 512"><title>python</title><rect x="4" y="65.048" style="fill:#FFFFFF;" width="504" height="381.896"/><g> <path style="fill:#AAC1CE;" d="M504,69.048v373.904H8V69.048H504 M512,61.048H0v389.904h512V61.048z"/> <rect x="3" y="126.848" style="fill:#AAC1CE;" width="505.84" height="8"/> </g><circle style="fill:#E04F5F;" cx="48.08" cy="98.504" r="12.584"/><circle style="fill:#25B6D2;" cx="89.312" cy="98.504" r="12.584"/><circle style="fill:#32BEA6;" cx="130.568" cy="98.504" r="12.584"/><g> <path style="fill:#415E72;" d="M112.856,247.544c5.96-0.976,12-1.432,18.04-1.344c6.784-0.52,13.536,1.352,19.096,5.28 c4.144,3.576,6.464,8.816,6.328,14.288c0.264,5.464-1.768,10.784-5.6,14.68c-5.648,4.888-12.984,7.376-20.44,6.912 c-1.928,0.032-3.856-0.096-5.76-0.384v24.368h-11.664C112.856,311.344,112.856,247.544,112.856,247.544z M124.56,277.672 c1.896,0.392,3.824,0.56,5.76,0.488c8.8,0,14.2-4.32,14.2-11.896c0-7.2-4.992-11.04-13.152-11.04 c-2.288-0.048-4.568,0.144-6.816,0.576L124.56,277.672z"/> <path style="fill:#415E72;" d="M174.008,264.616l8.448,25.04c0.96,2.88,1.92,6.4,2.592,9.12h0.28c0.8-2.688,1.6-6.144,2.504-9.208 l7.288-24.944h12.664l-11.704,31.848c-6.4,17.472-10.752,25.232-16.312,30.032c-3.432,3.2-7.744,5.304-12.376,6.048l-2.688-9.976 c2.488-0.64,4.832-1.752,6.904-3.264c2.696-1.912,4.888-4.44,6.4-7.384c0.432-0.632,0.704-1.36,0.8-2.12 c-0.032-0.808-0.264-1.6-0.672-2.296l-17.08-42.888L174.008,264.616z"/> <path style="fill:#415E72;" d="M228.152,251.28v13.336h11.2v8.8h-11.2v20.624c0,5.664,1.536,8.64,6.048,8.64 c1.552,0.016,3.096-0.176,4.6-0.576l0.192,9.016c-2.76,0.864-5.648,1.256-8.536,1.16c-3.776,0.184-7.456-1.208-10.168-3.832 c-2.808-3.744-4.112-8.4-3.648-13.056v-21.944h-6.72v-8.8h6.712v-10.584L228.152,251.28z"/> <path style="fill:#415E72;" d="M248.32,243.2h11.888v27.832h0.192c1.464-2.264,3.472-4.112,5.848-5.376 c2.456-1.408,5.24-2.136,8.064-2.112c8,0,16.312,5.272,16.312,20.24v27.536h-11.792v-26.168c0-6.816-2.496-11.896-9.016-11.896 c-4.152,0-7.832,2.672-9.12,6.624c-0.376,1.144-0.544,2.344-0.488,3.544v27.92H248.32V243.2z"/> <path style="fill:#415E72;" d="M347.656,287.552c0.944,12.752-8.624,23.856-21.376,24.8c-0.872,0.064-1.752,0.08-2.624,0.048 c-12.472,0.48-22.96-9.24-23.44-21.712c-0.032-0.792-0.016-1.584,0.032-2.368c-0.952-12.704,8.568-23.776,21.272-24.728 c0.968-0.072,1.936-0.088,2.904-0.032c12.36-0.488,22.784,9.128,23.272,21.496C347.728,285.888,347.712,286.72,347.656,287.552z M312.456,288.04c0,9.016,4.416,15.832,11.608,15.832c6.712,0,11.416-6.616,11.416-16c0-7.288-3.264-15.64-11.32-15.64 c-8.36-0.032-11.712,8.032-11.712,15.768L312.456,288.04z"/> <path style="fill:#415E72;" d="M357.376,278.536c0-5.376-0.104-9.88-0.392-13.912h10.4l0.568,7.008h0.288 c3.152-5.16,8.824-8.24,14.872-8.064c8.16,0,16.6,5.272,16.6,20.056v27.728H387.88v-26.4c0-6.72-2.496-11.808-8.92-11.808 c-4.232,0.096-7.928,2.872-9.208,6.904c-0.368,1.248-0.536,2.544-0.488,3.84v27.44h-11.888L357.376,278.536L357.376,278.536z"/> </g></symbol><symbol id="py-1" viewBox="0 0 318.188 318.188"><title>py-1</title><circle cx="148.679" cy="91.909" r="3.63"/><circle cx="168.017" cy="177.13" r="3.63"/><path d="M283.149,52.723L232.625,2.197C231.218,0.79,229.311,0,227.321,0H40.342c-4.143,0-7.5,3.358-7.5,7.5v303.188 c0,4.142,3.357,7.5,7.5,7.5h237.504c4.143,0,7.5-3.358,7.5-7.5V58.025C285.346,56.036,284.556,54.129,283.149,52.723z M234.821,25.606l24.918,24.919h-24.918V25.606z M47.842,15h171.98v10.263H47.842V15z M270.346,303.188H47.842V40.263h171.98 v17.763c0,4.143,3.357,7.5,7.5,7.5h43.024V303.188z"/><path d="M205.632,101.798h-14.563l0.001-14.563c0-11.302-14.067-19.825-32.722-19.825c-18.655,0-32.722,8.523-32.722,19.825 v14.563h-14.563c-11.302,0-19.824,14.067-19.824,32.722c0,18.655,8.522,32.722,19.824,32.722h14.563v14.563 c0,11.302,14.067,19.825,32.722,19.825c18.655,0,32.722-8.524,32.722-19.825v-14.563h14.563 c11.302,0,19.824-14.067,19.824-32.722C225.457,115.865,216.934,101.798,205.632,101.798z M122.757,147.745v4.496h-11.284 c-1.515-0.998-5.233-6.657-5.233-17.722c0-11.064,3.719-16.724,5.233-17.722h46.875c4.143,0,7.5-3.357,7.5-7.5v-2.866 c0-4.143-3.357-7.5-7.5-7.5h-17.722V87.645c0.998-1.515,6.658-5.234,17.722-5.234c11.063,0,16.724,3.72,17.722,5.234 l-0.002,33.635c0,2.37-1.928,4.299-4.299,4.299l-26.847,0.002C132.7,125.58,122.757,135.523,122.757,147.745z M205.223,152.241 h-46.875c-4.143,0-7.5,3.357-7.5,7.5v2.866c0,4.143,3.357,7.5,7.5,7.5h17.722v11.287c-0.998,1.515-6.658,5.234-17.722,5.234 c-11.064,0-16.724-3.72-17.722-5.234v-20.418c0-0.058-0.001-0.115-0.002-0.173v-13.059c0-2.37,1.928-4.299,4.298-4.299 l26.848-0.003c12.222,0,22.164-9.942,22.164-22.164v-4.481h11.289c1.515,0.998,5.233,6.657,5.233,17.722 C210.456,145.584,206.737,151.243,205.223,152.241z"/><polygon points="179.581,251.179 171.376,233.392 157.265,233.392 173.05,263.026 173.05,281.372 186.112,281.372 186.112,262.634 201.897,233.393 187.851,233.393 "/><path d="M150.242,237.363c-3.042-2.647-7.593-3.972-13.652-3.972h-16.607v47.979h12.963v-15.916h3.644 c5.819,0,10.309-1.461,13.472-4.382c3.161-2.921,4.742-7.061,4.742-12.421C154.804,243.773,153.282,240.01,150.242,237.363z M139.954,253.246c-1.149,1.095-2.697,1.641-4.645,1.641h-2.363v-11.025h3.348c3.588,0,5.383,1.619,5.383,4.856 C141.677,250.643,141.103,252.152,139.954,253.246z"/></symbol><symbol id="py-file-format" viewBox="0 0 548.291 548.291"><title>py-file-format</title><path d="M232.867,269.072c0-13.89-9.638-22.195-26.672-22.195c-6.95,0-11.654,0.672-14.121,1.344v44.623 c2.914,0.673,6.499,0.893,11.428,0.893C221.659,293.727,232.867,284.54,232.867,269.072z"/><path d="M486.201,196.124h-13.166v-63.528c0-0.396-0.062-0.795-0.115-1.196c-0.021-2.523-0.825-5-2.552-6.961L364.651,3.677 c-0.032-0.031-0.063-0.042-0.09-0.075c-0.624-0.704-1.364-1.29-2.138-1.796c-0.23-0.154-0.46-0.283-0.701-0.418 c-0.673-0.365-1.387-0.671-2.127-0.892c-0.199-0.055-0.373-0.134-0.571-0.188C358.23,0.118,357.39,0,356.556,0H96.757 C84.894,0,75.256,9.649,75.256,21.502v174.616H62.09c-16.968,0-30.729,13.753-30.729,30.73v159.812 c0,16.961,13.761,30.731,30.729,30.731h13.166V526.79c0,11.854,9.638,21.501,21.501,21.501h354.776 c11.853,0,21.501-9.647,21.501-21.501V417.397h13.166c16.966,0,30.729-13.769,30.729-30.736V226.854 C516.93,209.877,503.167,196.124,486.201,196.124z M451.534,520.968H96.757V417.397h354.776V520.968z M158.225,373.312V224.253 c10.536-1.795,25.329-3.15,46.18-3.15c21.065,0,36.084,4.042,46.176,12.104c9.638,7.623,16.137,20.169,16.137,34.973 c0,14.806-4.93,27.352-13.896,35.867c-11.653,10.99-28.916,15.914-49.095,15.914c-4.482,0-8.514-0.219-11.654-0.67v54.021H158.225z M271.221,222.237h39.004l15.465,36.305c4.708,10.982,7.848,19.048,11.658,28.927h0.446c3.36-9.427,6.944-18.165,11.434-28.927 l15.239-36.305h38.33l-49.765,88.098v62.978h-34.068v-61.885L271.221,222.237z M451.534,196.124H96.757V21.507h249.054v110.01 c0,5.939,4.817,10.75,10.751,10.75h94.972V196.124z"/></symbol><symbol id="py" viewBox="0 0 318.188 318.188"><title>py</title><polygon style="fill:#E8E8E8;" points="227.321,7.5 40.342,7.5 40.342,310.688 277.846,310.688 277.846,58.025 "/><g> <g> <path style="fill:#004A94;" d="M158.348,74.91c-15.19,0-25.222,6.307-25.222,12.325v19.196h25.222v2.866h-47.284 c-6.02,0-12.324,10.031-12.324,25.222s6.305,25.222,12.324,25.222h19.193v-11.996c0-8.086,6.578-14.665,14.665-14.665 l26.848-0.002c6.505,0,11.798-5.293,11.798-11.799v-20.738h0.002V87.235C183.569,81.217,173.538,74.91,158.348,74.91z"/> <circle style="fill:#FFFFFF;" cx="144.679" cy="91.909" r="3.63"/> </g> <g> <path style="fill:#FB9200;" d="M205.632,109.298h-19.198v11.981c0,8.086-6.578,14.664-14.664,14.664l-26.849,0.003 c-6.505,0-11.797,5.293-11.797,11.799v13.234l0.002-0.003v20.827c0,6.019,10.031,12.325,25.222,12.325 s25.222-6.307,25.222-12.325v-19.196h-25.222v-2.866h47.284c6.02,0,12.324-10.031,12.324-25.222S211.651,109.298,205.632,109.298 z"/> <circle style="fill:#FFFFFF;" cx="172.017" cy="177.13" r="3.63"/> </g> </g><polygon style="fill:#004A94;" points="235.14,32.763 40.342,32.763 40.342,7.5 227.321,7.5 "/><polygon style="fill:#D1D3D3;" points="227.321,58.025 277.846,58.025 227.321,7.5 "/><path style="fill:#333E48;" d="M283.149,52.723L232.625,2.197C231.218,0.79,229.311,0,227.321,0H40.342c-4.143,0-7.5,3.358-7.5,7.5 v303.188c0,4.143,3.357,7.5,7.5,7.5h237.504c4.143,0,7.5-3.357,7.5-7.5V58.025C285.346,56.036,284.556,54.129,283.149,52.723z M234.821,25.606l24.918,24.919h-24.918L234.821,25.606L234.821,25.606z M47.842,15h171.979v10.263H47.842V15z M270.346,303.188 H47.842V40.263h171.979v17.763c0,4.143,3.357,7.5,7.5,7.5h43.024v237.662H270.346z M179.581,251.179l-8.205-17.787h-14.111 l15.785,29.634v18.346h13.062v-18.738l15.785-29.241h-14.046L179.581,251.179z M150.242,237.363 c-3.042-2.647-7.593-3.972-13.652-3.972h-16.606v47.979h12.963v-15.916h3.644c5.819,0,10.31-1.461,13.472-4.382 c3.161-2.921,4.742-7.061,4.742-12.421C154.804,243.773,153.282,240.01,150.242,237.363z M139.954,253.246 c-1.149,1.095-2.697,1.641-4.645,1.641h-2.363v-11.025h3.348c3.588,0,5.383,1.619,5.383,4.856 C141.677,250.643,141.103,252.152,139.954,253.246z"/></symbol></svg>