<svg xmlns="http://www.w3.org/2000/svg" style="display: none;"><symbol id="mail" viewBox="0 0 512 512"><title>mail</title><g> <g> <path d="M256,60c-57.897,0-105,47.103-105,105c0,35.943,18.126,69.015,48.487,88.467c31.003,19.863,69.06,21.974,104.426,5.703 c7.525-3.462,10.82-12.37,7.357-19.896c-3.462-7.525-12.369-10.82-19.896-7.358c-25.86,11.898-53.454,10.545-75.703-3.709 C193.961,214.298,181,190.669,181,165c0-41.355,33.645-75,75-75s75,33.645,75,75c0,8.271-6.729,15-15,15 c-7.558,0-14.618-5.732-14.998-14.772C301.001,165.152,301,165.076,301,165c0-24.813-20.187-45-45-45s-45,20.187-45,45 s20.187,45,45,45c11.516,0,22.031-4.353,29.999-11.494C293.966,205.648,304.483,210,316,210c24.813,0,45-20.187,45-45 C361,107.103,313.897,60,256,60z M270.789,167.406C269.631,174.535,263.45,180,256,180c-8.271,0-15-6.729-15-15s6.729-15,15-15 c7.691,0,14.04,5.82,14.895,13.285C270.671,164.648,270.634,166.035,270.789,167.406z"/> </g> </g><g> <g> <path d="M480.999,196.976c-0.004-3.879-1.566-7.756-4.393-10.583L421,130.787V15c0-8.284-6.716-15-15-15H106 c-8.284,0-15,6.716-15,15v115.787l-55.606,55.606c-0.052,0.052-0.096,0.11-0.147,0.163c-2.811,2.896-4.24,6.709-4.246,10.42 c0,0.01-0.001,0.019-0.001,0.029V467c0,24.845,20.216,45,45,45h360c24.839,0,45-20.207,45-45V197.005 C481,196.995,480.999,196.986,480.999,196.976z M421,173.213L444.787,197L421,220.787V173.213z M121,137.005 c0-0.003,0-0.007,0-0.01V30h270v106.995c0,0.003,0,0.007,0,0.01v113.782L309.787,332H202.213L121,250.787V137.005z M91,173.213 v47.574L67.213,197L91,173.213z M61,460.787V233.213L174.787,347L61,460.787z M82.214,482l119.999-120h107.574l119.999,120H82.214 z M451,460.787L337.213,347L451,233.213V460.787z"/> </g> </g></symbol><symbol id="gmail" viewBox="0 0 512 512"><title>gmail</title><g> <polygon style="fill:#F2F2F2;" points="484.973,122.808 452.288,451.017 59.712,451.017 33.379,129.16 256,253.802 "/> <polygon style="fill:#F2F2F2;" points="473.886,60.983 256,265.659 38.114,60.983 256,60.983 "/> </g><path style="fill:#F14336;" d="M59.712,155.493v295.524H24.139C10.812,451.017,0,440.206,0,426.878V111.967l39,1.063L59.712,155.493 z"/><path style="fill:#D32E2A;" d="M512,111.967v314.912c0,13.327-10.812,24.139-24.152,24.139h-35.56V155.493l19.692-46.525 L512,111.967z"/><path style="fill:#F14336;" d="M512,85.122v26.845l-59.712,43.526L256,298.561L59.712,155.493L0,111.967V85.122 c0-13.327,10.812-24.139,24.139-24.139h13.975L256,219.792L473.886,60.983h13.962C501.188,60.983,512,71.794,512,85.122z"/><polygon style="fill:#D32E2A;" points="59.712,155.493 0,146.235 0,111.967 "/></symbol><symbol id="email" viewBox="0 0 502.073 502.073"><title>email</title><path style="fill:#FFD15C;" d="M501.812,481.176c0,6.269-2.09,11.494-6.269,15.673c-4.18,3.135-8.359,5.224-14.629,5.224H21.159 c-5.224,0-10.449-2.09-14.629-5.224c-4.18-4.18-6.269-9.404-6.269-15.673V175.02h501.551V481.176z"/><path style="fill:#F8B64C;" d="M495.543,496.849c-4.18,3.135-8.359,5.224-14.629,5.224H21.159c-5.224,0-10.449-2.09-14.629-5.224 l244.506-210.024L495.543,496.849z"/><path style="fill:#40596B;" d="M501.812,175.02l-71.053,51.2L264.62,345.339c-8.359,6.269-19.853,6.269-28.212,0L71.314,226.22 l-71.053-51.2l71.053-51.2L225.959,13.061l11.494-8.359c8.359-6.269,19.853-6.269,28.212,0l11.494,8.359l74.188,53.29l36.571,26.122 l42.841,31.347L501.812,175.02z"/><path style="fill:#F2F2F2;" d="M430.759,77.845V226.22L264.62,345.339c-8.359,6.269-19.853,6.269-28.212,0L71.314,226.22V33.959 c0-11.494,9.404-20.898,20.898-20.898h272.718L430.759,77.845z"/><path style="fill:#CDD6E0;" d="M365.975,61.127c0,9.404,7.314,16.718,16.718,16.718h48.065l-64.784-64.784L365.975,61.127 L365.975,61.127z"/><path style="fill:#FF7058;" d="M312.686,223.086h16.718c-5.224,11.494-13.584,19.853-25.078,26.122 c-12.539,7.314-28.212,10.449-47.02,10.449c-17.763,0-33.437-3.135-45.976-9.404c-12.539-6.269-22.988-14.629-29.257-27.167 c-6.269-11.494-9.404-25.078-9.404-38.661c0-15.673,3.135-29.257,10.449-42.841c7.314-13.584,16.718-22.988,29.257-29.257 c12.539-6.269,27.167-9.404,42.841-9.404c13.584,0,26.122,3.135,36.571,8.359c10.449,5.224,18.808,12.539,24.033,22.988 c5.224,9.404,8.359,20.898,8.359,32.392c0,13.584-4.18,26.122-12.539,37.616c-10.449,14.629-24.033,20.898-40.751,20.898 c-4.18,0-8.359-1.045-10.449-2.09c-2.09-2.09-4.18-4.18-4.18-7.314c-6.269,6.269-13.584,9.404-21.943,9.404 c-9.404,0-16.718-3.135-21.943-9.404c-6.269-6.269-9.404-14.629-9.404-25.078c0-12.539,3.135-24.033,10.449-35.527 c8.359-12.539,19.853-18.808,33.437-18.808c9.404,0,16.718,4.18,21.943,11.494l2.09-9.404h21.943l-12.539,58.514 c-1.045,4.18-1.045,6.269-1.045,7.314s0,2.09,1.045,3.135s1.045,1.045,2.09,1.045c2.09,0,6.269-2.09,10.449-5.224 c5.224-4.18,10.449-9.404,13.584-16.718c3.135-7.314,5.224-14.629,5.224-21.943c0-13.584-5.224-25.078-14.629-33.437 c-9.404-9.404-22.988-13.584-40.751-13.584c-14.629,0-27.167,3.135-37.616,9.404c-10.449,6.269-17.763,14.629-22.988,25.078 s-7.314,21.943-7.314,34.482c0,11.494,3.135,21.943,8.359,31.347c6.269,9.404,13.584,16.718,24.033,20.898 c10.449,4.18,21.943,6.269,35.527,6.269c12.539,0,24.033-2.09,33.437-5.224C299.102,235.624,306.416,230.4,312.686,223.086z M223.869,189.649c0,7.314,1.045,11.494,4.18,15.673c3.135,3.135,6.269,5.224,10.449,5.224c3.135,0,6.269-1.045,8.359-2.09 c2.09-1.045,4.18-3.135,6.269-5.224c3.135-3.135,5.225-8.359,7.314-14.629c2.09-6.269,3.135-12.539,3.135-17.763 c0-6.269-1.045-10.449-4.18-14.629c-3.135-3.135-6.269-5.224-10.449-5.224c-4.18,0-9.404,2.09-12.539,5.224 c-4.18,3.135-7.314,8.359-9.404,15.673C224.914,178.155,223.869,184.424,223.869,189.649z"/></symbol><symbol id="envelope-back-view-outline" viewBox="0 0 31.797 31.797"><title>envelope-back-view-outline</title><path d="M0,5.713v20.371h31.797V5.713H0z M29.201,7.092L15.899,18.178L2.595,7.092H29.201z M1.38,24.704V7.875l14.519,12.098 L30.417,7.875v16.83L1.38,24.704L1.38,24.704z"/></symbol><symbol id="eye-1" viewBox="0 0 512.001 512.001"><title>eye-1</title><g> <g> <path d="M503.698,231.895c-28.735-36.843-65.956-67.318-107.637-88.128c-42.548-21.243-88.321-32.265-136.104-32.843 c-1.316-0.036-6.6-0.036-7.916,0c-47.782,0.579-93.556,11.6-136.104,32.843c-41.681,20.81-78.9,51.284-107.636,88.128 c-11.07,14.193-11.07,34.018,0,48.211c28.735,36.843,65.955,67.318,107.636,88.128c42.548,21.243,88.321,32.265,136.104,32.843 c1.316,0.036,6.6,0.036,7.916,0c47.782-0.579,93.556-11.6,136.104-32.843c41.681-20.81,78.901-51.284,107.637-88.128 C514.768,265.911,514.768,246.088,503.698,231.895z M125.242,349.599c-38.92-19.432-73.678-47.892-100.517-82.303 c-5.187-6.651-5.187-15.94,0-22.591c26.838-34.411,61.596-62.871,100.517-82.303c11.054-5.518,22.342-10.29,33.839-14.33 c-29.578,26.588-48.213,65.12-48.213,107.928c0,42.81,18.636,81.345,48.217,107.932 C147.588,359.892,136.297,355.118,125.242,349.599z M256,380.303c-68.542,0-124.304-55.762-124.304-124.304 S187.458,131.696,256,131.696S380.304,187.458,380.304,256S324.542,380.303,256,380.303z M487.275,267.295 c-26.838,34.411-61.596,62.871-100.517,82.303c-11.041,5.512-22.322,10.263-33.805,14.299 c29.558-26.587,48.179-65.107,48.179-107.898c0-42.814-18.64-81.351-48.223-107.939c11.5,4.041,22.793,8.819,33.85,14.34 c38.92,19.432,73.678,47.892,100.517,82.303C492.462,251.355,492.462,260.644,487.275,267.295z"/> </g> </g><g> <g> <path d="M256,202.804c-29.332,0-53.195,23.863-53.195,53.195s23.863,53.195,53.195,53.195s53.195-23.863,53.195-53.195 C309.196,226.667,285.333,202.804,256,202.804z M256,288.367c-17.847,0-32.368-14.519-32.368-32.368 c0-17.848,14.519-32.367,32.368-32.367c17.847,0,32.367,14.519,32.367,32.367C288.368,273.848,273.847,288.367,256,288.367z"/> </g> </g></symbol><symbol id="eye" viewBox="0 0 488.85 488.85"><title>eye</title><path d="M244.425,98.725c-93.4,0-178.1,51.1-240.6,134.1c-5.1,6.8-5.1,16.3,0,23.1c62.5,83.1,147.2,134.2,240.6,134.2 s178.1-51.1,240.6-134.1c5.1-6.8,5.1-16.3,0-23.1C422.525,149.825,337.825,98.725,244.425,98.725z M251.125,347.025 c-62,3.9-113.2-47.2-109.3-109.3c3.2-51.2,44.7-92.7,95.9-95.9c62-3.9,113.2,47.2,109.3,109.3 C343.725,302.225,302.225,343.725,251.125,347.025z M248.025,299.625c-33.4,2.1-61-25.4-58.8-58.8c1.7-27.6,24.1-49.9,51.7-51.7 c33.4-2.1,61,25.4,58.8,58.8C297.925,275.625,275.525,297.925,248.025,299.625z"/></symbol><symbol id="eraser" viewBox="0 0 457.35 457.35"><title>eraser</title><path style="fill:#A7B6C4;" d="M232.009,364.53l-78.65,78.65c-3.34,3.34-7.79,5.19-12.53,5.19c-4.73,0-9.18-1.85-12.52-5.19 L14.179,329.05c-6.91-6.91-6.91-18.15,0-25.06l78.64-78.65L232.009,364.53z"/><rect x="354.914" y="-12.817" transform="matrix(0.7071 -0.7071 0.7071 0.7071 39.7293 284.3651)" style="fill:#F97946;" width="16.419" height="214.084"/><polygon style="fill:#F97946;" points="256.089,352.64 244.469,364.26 93.089,212.88 104.709,201.27 "/><rect x="152.752" y="81.448" transform="matrix(0.7071 -0.7071 0.7071 0.7071 -54.5357 245.3193)" style="fill:#4489D3;" width="232.214" height="214.084"/><path d="M457.349,164.11l-212.88,212.88l-6.09-6.1l-78.65,78.65c-5.21,5.21-12.05,7.81-18.9,7.81c-6.84,0-13.68-2.6-18.89-7.81 L7.809,335.41c-10.41-10.42-10.41-27.37,0-37.78l78.65-78.65l-6.1-6.1L293.239,0L457.349,164.11z M433.009,175.72l11.61-11.61 L293.239,12.73l-11.61,11.61L433.009,175.72z M262.449,346.28l164.2-164.2L275.269,30.7l-164.2,164.2L262.449,346.28z M244.469,364.26l11.62-11.62l-151.38-151.37l-11.62,11.61L244.469,364.26z M153.359,443.18l78.65-78.65L92.819,225.34 l-78.64,78.65c-6.91,6.91-6.91,18.15,0,25.06l114.13,114.13c3.34,3.34,7.79,5.19,12.52,5.19 C145.569,448.37,150.019,446.52,153.359,443.18z"/></symbol><symbol id="delete-2" viewBox="0 0 496 496"><title>delete-2</title><path style="fill:#DD2A73;" d="M496,248c0,136.8-111.2,248-248,248S0,384.8,0,248S111.2,0,248,0S496,111.2,496,248z"/><path style="fill:#C60E6A;" d="M248,0c136.8,0,248,111.2,248,248S384.8,496,248,496"/><path style="fill:#D31C70;" d="M72.8,72.8c96.8-96.8,253.6-96.8,350.4,0s96.8,253.6,0,350.4"/><path style="fill:#EEFFFF;" d="M352.8,256H143.2c-6.4,0-12-1.6-12-8s4.8-8,12-8h209.6c6.4,0,12,1.6,12,8S359.2,256,352.8,256z"/></symbol><symbol id="chat-1" viewBox="0 0 496 496"><title>chat-1</title><path style="fill:#E83888;" d="M440.8,45.2H55.2C24.8,45.2,0,70,0,100.4v244.8c0,29.6,24.8,54.4,55.2,54.4h311.2l68,33.6L468,450 v-37.6v-20c16.8-9.6,28-27.2,28-47.2V100.4C496,70,471.2,45.2,440.8,45.2z M472.8,344.4c0,16-12,29.6-28,31.2v36.8l-72.8-36H55.2 C37.6,376.4,24,362,24,345.2V100.4c0-17.6,14.4-31.2,31.2-31.2h386.4c17.6,0,31.2,14.4,31.2,31.2L472.8,344.4L472.8,344.4z"/><g> <path style="fill:#C11473;" d="M468,392.4C468.8,392.4,468.8,391.6,468,392.4l-23.2-16v36.8l0,0l23.2,37.6v-37.6V392.4z"/> <path style="fill:#C11473;" d="M365.6,399.6l5.6-23.2h-316c-14.4,0-26.4-9.6-30.4-23.2c4.8,20,16.8,35.2,34.4,46.4L365.6,399.6 L365.6,399.6z"/> </g><g> <circle style="fill:#E577AE;" cx="152.8" cy="262.8" r="15.2"/> <circle style="fill:#E577AE;" cx="248" cy="262.8" r="15.2"/> <circle style="fill:#E577AE;" cx="343.2" cy="262.8" r="15.2"/> </g><circle style="fill:#E83888;" cx="82.4" cy="127.6" r="82.4"/><path style="fill:#C11473;" d="M140,69.2c32,32,32,84,0,116s-84,32-116,0"/><path style="fill:#FFFFFF;" d="M118.4,131.6h-72c-2.4,0-4-1.6-4-4s1.6-4,4-4h72c2.4,0,4,1.6,4,4S120,131.6,118.4,131.6z"/></symbol><symbol id="chat" viewBox="0 0 496.005 496.005"><title>chat</title><path style="fill:#FFB000;" d="M496.005,393.602c0,18.4-15.2,30.4-33.6,30.4h-444c-19.2,0-18.4-12-18.4-30.4v-263.2 c0-18.4,15.2-34.4,33.6-34.4h428.8c18.4,0,33.6,16,33.6,34.4V393.602z"/><g> <path style="fill:#FF9D00;" d="M462.405,96.002c18.4,0,33.6,16,33.6,34.4v263.2c0,18.4-15.2,30.4-33.6,30.4h-444 c-19.2,0-18.4-13.6-18.4-32"/> <polygon style="fill:#FF9D00;" points="496.005,313.602 496.005,475.202 308.005,350.402 "/> </g><path style="fill:#FF6D00;" d="M496.005,475.202c0-1.6,0-2.4,0-4v-2.4c0-23.2-19.2-44.8-42.4-44.8h-34.4L496.005,475.202z"/><g> <path style="fill:#FF9100;" d="M364.805,216.002h-233.6c-7.2,0-12.8-4.8-12.8-12s5.6-12,12.8-12h233.6c7.2,0,12.8,4.8,12.8,12 S372.005,216.002,364.805,216.002z"/> <path style="fill:#FF9100;" d="M364.805,288.002h-233.6c-7.2,0-12.8-4.8-12.8-12s5.6-12,12.8-12h233.6c7.2,0,12.8,4.8,12.8,12 C377.605,283.202,372.005,288.002,364.805,288.002z"/> <path style="fill:#FF9100;" d="M257.605,360.002h-126.4c-7.2,0-12.8-4.8-12.8-12s5.6-12,12.8-12h126.4c7.2,0,12.8,4.8,12.8,12 S264.805,360.002,257.605,360.002z"/> </g><g> <path style="fill:#F8FFFF;" d="M364.805,208.002h-233.6c-7.2,0-12.8-8.8-12.8-16s5.6-16,12.8-16h233.6c7.2,0,12.8,8.8,12.8,16 S372.005,208.002,364.805,208.002z"/> <path style="fill:#F8FFFF;" d="M364.805,280.002h-233.6c-7.2,0-12.8-8.8-12.8-16s5.6-16,12.8-16h233.6c7.2,0,12.8,8.8,12.8,16 C377.605,271.202,372.005,280.002,364.805,280.002z"/> <path style="fill:#F8FFFF;" d="M257.605,352.002h-126.4c-7.2,0-12.8-8.8-12.8-16s5.6-16,12.8-16h126.4c7.2,0,12.8,8.8,12.8,16 S264.805,352.002,257.605,352.002z"/> </g><path style="opacity:0.3;fill:#9AA5A4;enable-background:new ;" d="M174.405,103.202c0,45.6-36.8,82.4-82.4,82.4 s-82.4-36.8-82.4-82.4s36.8-82.4,82.4-82.4C137.605,20.802,174.405,57.602,174.405,103.202z"/><path style="fill:#E83888;" d="M164.005,103.202c0,45.6-36.8,82.4-82.4,82.4c-44.8-0.8-81.6-37.6-81.6-82.4 c0-45.6,36.8-82.4,82.4-82.4C127.205,20.802,164.005,57.602,164.005,103.202z"/><path style="fill:#C11473;" d="M82.405,20.802c45.6,0,82.4,36.8,82.4,82.4s-36.8,82.4-82.4,82.4"/><path style="fill:#D6217B;" d="M24.005,44.802c32-32,84-32,116,0s32,84,0,116"/><path style="fill:#FFFFFF;" d="M117.605,104.002h-72c-2.4,0-4-1.6-4-4s1.6-4,4-4h72c2.4,0,4,1.6,4,4 S120.005,104.002,117.605,104.002z"/></symbol><symbol id="x-button" viewBox="0 0 512 512"><title>x-button</title><circle style="fill:#E21B1B;" cx="256" cy="256" r="256"/><path style="fill:#C40606;" d="M510.28,285.304L367.912,142.936L150.248,368.608l140.928,140.928 C406.352,493.696,497.056,401.288,510.28,285.304z"/><g> <path style="fill:#FFFFFF;" d="M354.376,371.536c-5.12,0-10.232-1.952-14.144-5.856L146.408,171.848 c-7.816-7.816-7.816-20.472,0-28.28s20.472-7.816,28.28,0L368.52,337.4c7.816,7.816,7.816,20.472,0,28.28 C364.608,369.584,359.496,371.536,354.376,371.536z"/> <path style="fill:#FFFFFF;" d="M160.544,371.536c-5.12,0-10.232-1.952-14.144-5.856c-7.816-7.816-7.816-20.472,0-28.28 l193.832-193.832c7.816-7.816,20.472-7.816,28.28,0s7.816,20.472,0,28.28L174.688,365.68 C170.784,369.584,165.664,371.536,160.544,371.536z"/> </g></symbol><symbol id="cancel-button" viewBox="0 0 510 510"><title>cancel-button</title><path d="M255,0C114.75,0,0,114.75,0,255s114.75,255,255,255s255-114.75,255-255S395.25,0,255,0z M382.5,346.8l-35.7,35.7 L255,290.7l-91.8,91.8l-35.7-35.7l91.8-91.8l-91.8-91.8l35.7-35.7l91.8,91.8l91.8-91.8l35.7,35.7L290.7,255L382.5,346.8z"/></symbol><symbol id="delete-1" viewBox="0 0 400.196 400.196"><title>delete-1</title><polygon style="fill:#4DCFE0;" points="338.547,75.755 311.38,384.522 87.249,384.522 60.082,75.755 137.927,75.755 261.224,75.755 "/><g> <path style="fill:#3A2C51;" d="M199.576,338.547c-8.882,0-15.673-6.792-15.673-15.673V137.404c0-8.882,6.792-15.673,15.673-15.673 s15.673,6.792,15.673,15.673v185.469C215.249,331.755,208.457,338.547,199.576,338.547z"/> <path style="fill:#3A2C51;" d="M253.388,338.547h-0.522c-8.882-0.522-15.151-7.837-15.151-16.196l6.792-185.469 c0.522-8.882,7.837-15.673,16.196-15.151c8.882,0.522,15.151,7.837,15.151,16.196l-6.792,185.469 C268.539,331.755,261.747,338.547,253.388,338.547z"/> <path style="fill:#3A2C51;" d="M145.763,338.547c-8.359,0-15.151-6.792-15.673-15.151l-6.792-185.469 c-0.522-8.882,6.269-15.673,15.151-16.196c8.882-0.522,15.673,6.269,16.196,15.151l6.792,185.469 c0.522,8.882-6.269,15.673-15.151,16.196H145.763z"/> <path style="fill:#3A2C51;" d="M375.641,60.082h-37.094c0,0,0,0-0.522,0h-61.127V26.122C276.898,11.494,265.404,0,250.776,0h-102.4 c-14.629,0-26.122,11.494-26.122,26.122v33.959H60.082H23.51c-8.882,0-15.673,6.792-15.673,15.673s6.792,15.673,15.673,15.673 h22.465L72.098,386.09c0.522,7.837,7.314,14.106,15.673,14.106h224.131c8.359,0,15.151-6.269,15.673-14.106l26.122-294.661h22.988 c8.882,0,15.673-6.792,15.673-15.673S384.522,60.082,375.641,60.082z M153.6,31.347h91.951v28.735H153.6V31.347z M297.273,368.849 H101.355L76.8,91.429h243.984L297.273,368.849z"/> </g></symbol><symbol id="delete" viewBox="0 0 512 512"><title>delete</title><g> <g> <g> <polygon points="353.574,176.526 313.496,175.056 304.807,412.34 344.885,413.804 "/> <rect x="235.948" y="175.791" width="40.104" height="237.285"/> <polygon points="207.186,412.334 198.497,175.049 158.419,176.52 167.109,413.804 "/> <path d="M17.379,76.867v40.104h41.789L92.32,493.706C93.229,504.059,101.899,512,112.292,512h286.74 c10.394,0,19.07-7.947,19.972-18.301l33.153-376.728h42.464V76.867H17.379z M380.665,471.896H130.654L99.426,116.971h312.474 L380.665,471.896z"/> </g> </g> </g><g> <g> <path d="M321.504,0H190.496c-18.428,0-33.42,14.992-33.42,33.42v63.499h40.104V40.104h117.64v56.815h40.104V33.42 C354.924,14.992,339.932,0,321.504,0z"/> </g> </g></symbol><symbol id="file-1" viewBox="0 0 58 58"><title>file-1</title><g> <polygon style="fill:#EFEBDE;" points="46.5,14 32.5,0 1.5,0 1.5,58 46.5,58 "/> <g> <path style="fill:#D5D0BB;" d="M11.5,23h25c0.552,0,1-0.447,1-1s-0.448-1-1-1h-25c-0.552,0-1,0.447-1,1S10.948,23,11.5,23z"/> <path style="fill:#D5D0BB;" d="M11.5,15h10c0.552,0,1-0.447,1-1s-0.448-1-1-1h-10c-0.552,0-1,0.447-1,1S10.948,15,11.5,15z"/> <path style="fill:#D5D0BB;" d="M36.5,29h-25c-0.552,0-1,0.447-1,1s0.448,1,1,1h25c0.552,0,1-0.447,1-1S37.052,29,36.5,29z"/> <path style="fill:#D5D0BB;" d="M36.5,37h-25c-0.552,0-1,0.447-1,1s0.448,1,1,1h25c0.552,0,1-0.447,1-1S37.052,37,36.5,37z"/> <path style="fill:#D5D0BB;" d="M36.5,45h-25c-0.552,0-1,0.447-1,1s0.448,1,1,1h25c0.552,0,1-0.447,1-1S37.052,45,36.5,45z"/> </g> <polygon style="fill:#D5D0BB;" points="32.5,0 32.5,14 46.5,14 "/> </g><g> <circle style="fill:#ED7161;" cx="44.5" cy="46" r="12"/> <path style="fill:#FFFFFF;" d="M45.914,46l3.536-3.536c0.391-0.391,0.391-1.023,0-1.414s-1.023-0.391-1.414,0L44.5,44.586 l-3.536-3.536c-0.391-0.391-1.023-0.391-1.414,0s-0.391,1.023,0,1.414L43.086,46l-3.536,3.536c-0.391,0.391-0.391,1.023,0,1.414 c0.195,0.195,0.451,0.293,0.707,0.293s0.512-0.098,0.707-0.293l3.536-3.536l3.536,3.536c0.195,0.195,0.451,0.293,0.707,0.293 s0.512-0.098,0.707-0.293c0.391-0.391,0.391-1.023,0-1.414L45.914,46z"/> </g></symbol><symbol id="rubbish-bin" viewBox="0 0 774.266 774.266"><title>rubbish-bin</title><path d="M640.35,91.169H536.971V23.991C536.971,10.469,526.064,0,512.543,0c-1.312,0-2.187,0.438-2.614,0.875 C509.491,0.438,508.616,0,508.179,0H265.212h-1.74h-1.75c-13.521,0-23.99,10.469-23.99,23.991v67.179H133.916 c-29.667,0-52.783,23.116-52.783,52.783v38.387v47.981h45.803v491.6c0,29.668,22.679,52.346,52.346,52.346h415.703 c29.667,0,52.782-22.678,52.782-52.346v-491.6h45.366v-47.981v-38.387C693.133,114.286,670.008,91.169,640.35,91.169z M285.713,47.981h202.84v43.188h-202.84V47.981z M599.349,721.922c0,3.061-1.312,4.363-4.364,4.363H179.282 c-3.052,0-4.364-1.303-4.364-4.363V230.32h424.431V721.922z M644.715,182.339H129.551v-38.387c0-3.053,1.312-4.802,4.364-4.802 H640.35c3.053,0,4.365,1.749,4.365,4.802V182.339z"/><rect x="475.031" y="286.593" width="48.418" height="396.942"/><rect x="363.361" y="286.593" width="48.418" height="396.942"/><rect x="251.69" y="286.593" width="48.418" height="396.942"/></symbol><symbol id="edit-3" viewBox="0 0 528.807 528.807"><title>edit-3</title><path d="M513.74,204.829l-29.482,29.486l-82.147-82.139l29.494-29.489c9.292-9.292,23.253-10.441,31.138-2.565l53.563,53.572 C524.179,181.567,523.032,195.537,513.74,204.829z M388.421,165.859l82.147,82.147l-195.883,195.88 c-0.898,0.898-3.393,3.393-6.892,4.285c-0.405,0.195-0.819,0.361-1.229,0.491l-102.23,32.58c-2.861,0.904-5.736,0.319-7.601-1.549 c-1.871-1.868-2.45-4.74-1.555-7.602l32.58-102.221c0.139-0.419,0.305-0.827,0.491-1.224c0.896-3.505,3.384-5.993,4.292-6.897 l36.812-36.812H105.02c-5.012,0-9.079-4.066-9.079-9.079c0-5.023,4.066-9.078,9.079-9.078h142.491L388.421,165.859z M249.417,437.574l-50.569-50.561l-13.565,42.581l21.554,21.557L249.417,437.574z M385.265,198.508 c-2.908-2.911-7.625-2.911-10.527,0L222.03,351.206c-2.905,2.908-2.905,7.625,0,10.533c2.905,2.908,7.625,2.908,10.53,0 l152.705-152.699C388.172,206.129,388.172,201.413,385.265,198.508z M376.037,489.217c0,5.455-4.438,9.9-9.895,9.9H185.956 l-16.275,5.189c-3.269,1.041-6.629,1.566-9.992,1.566c-7.161,0-13.819-2.453-19.266-6.756H46.885c-5.458,0-9.909-4.434-9.909-9.9 V73.424c0-5.458,4.445-9.9,9.909-9.9h37.12v15.675c0,5.464,4.43,9.897,9.903,9.897c5.471,0,9.901-4.433,9.901-9.897V63.523h56.92 v15.675c0,5.464,4.43,9.897,9.901,9.897c5.473,0,9.903-4.433,9.903-9.897V63.523h49.497v15.675c0,5.464,4.43,9.897,9.904,9.897 c5.47,0,9.9-4.433,9.9-9.897V63.523h54.453v15.675c0,5.464,4.427,9.897,9.895,9.897c5.473,0,9.906-4.433,9.906-9.897V63.523h42.072 c5.45,0,9.896,4.442,9.896,9.9v68.571l10.379-10.374l19.322-19.325V73.424c0-21.831-17.762-39.596-39.597-39.596h-42.072V9.904 c0-5.467-4.434-9.904-9.906-9.904c-5.462,0-9.895,4.431-9.895,9.904v23.924h-54.465V9.904c0-5.467-4.43-9.904-9.901-9.904 c-5.473,0-9.903,4.431-9.903,9.904v23.924h-49.497V9.904c0-5.467-4.43-9.904-9.904-9.904c-5.47,0-9.9,4.431-9.9,9.904v23.924 h-56.92V9.904c0-5.467-4.431-9.904-9.901-9.904c-5.473,0-9.903,4.431-9.903,9.904v23.924h-37.12 c-21.832,0-39.602,17.765-39.602,39.596v415.787c0,21.834,17.771,39.596,39.602,39.596h319.264 c21.835,0,39.597-17.762,39.597-39.596V345.059l-29.702,29.708v114.45H376.037z M298.707,152.436H105.02 c-5.012,0-9.079,4.061-9.079,9.079c0,5.019,4.066,9.079,9.079,9.079h193.687c5.013,0,9.079-4.061,9.079-9.079 C307.786,156.497,303.72,152.436,298.707,152.436z M298.707,225.635H105.02c-5.012,0-9.079,4.063-9.079,9.079 c0,5.019,4.066,9.079,9.079,9.079h193.687c5.013,0,9.079-4.061,9.079-9.079C307.786,229.698,303.72,225.635,298.707,225.635z"/></symbol><symbol id="file" viewBox="0 0 58.707 58.707"><title>file</title><g> <polygon style="fill:#EFEBDE;" points="46.072,14 32.072,0 1.072,0 1.072,58 46.072,58 "/> <g> <path style="fill:#D5D0BB;" d="M11.072,23h25c0.552,0,1-0.447,1-1s-0.448-1-1-1h-25c-0.552,0-1,0.447-1,1S10.52,23,11.072,23z"/> <path style="fill:#D5D0BB;" d="M11.072,15h10c0.552,0,1-0.447,1-1s-0.448-1-1-1h-10c-0.552,0-1,0.447-1,1S10.52,15,11.072,15z"/> <path style="fill:#D5D0BB;" d="M36.072,29h-25c-0.552,0-1,0.447-1,1s0.448,1,1,1h25c0.552,0,1-0.447,1-1S36.624,29,36.072,29z"/> <path style="fill:#D5D0BB;" d="M36.072,37h-25c-0.552,0-1,0.447-1,1s0.448,1,1,1h25c0.552,0,1-0.447,1-1S36.624,37,36.072,37z"/> <path style="fill:#D5D0BB;" d="M36.072,45h-25c-0.552,0-1,0.447-1,1s0.448,1,1,1h25c0.552,0,1-0.447,1-1S36.624,45,36.072,45z"/> </g> <polygon style="fill:#D5D0BB;" points="32.072,0 32.072,14 46.072,14 "/> </g><g> <polygon style="fill:#EDDCC7;" points="36.201,49.214 36.194,49.222 34.205,56.511 38.852,51.865 "/> <path style="fill:#D75A4A;" d="M55.451,35.266l-1.247-1.247c-0.775-0.775-2.032-0.775-2.807,0L47.815,37.6l2.651,2.651 L55.451,35.266z"/> <rect x="41.459" y="36.521" transform="matrix(0.7071 0.7071 -0.7071 0.7071 44.3228 -17.5395)" style="fill:#F29C21;" width="3.749" height="16.424"/> <polygon style="fill:#D6C4B1;" points="41.85,54.879 41.858,54.871 38.852,51.865 34.205,56.511 34.072,57 "/> <path style="fill:#A34740;" d="M53.472,43.257l3.582-3.582c0.775-0.775,0.775-2.032,0-2.807l-1.602-1.602l-4.985,4.985 L53.472,43.257z"/> <rect x="44.036" y="39.349" transform="matrix(-0.7071 -0.7071 0.7071 -0.7071 45.1717 113.8333)" style="fill:#E18C25;" width="4.251" height="16.424"/> <path style="fill:#5E5E5E;" d="M33.365,58.707c-0.256,0-0.512-0.098-0.707-0.293c-0.391-0.391-0.391-1.023,0-1.414l2.207-2.207 c0.391-0.391,1.023-0.391,1.414,0s0.391,1.023,0,1.414l-2.207,2.207C33.877,58.609,33.621,58.707,33.365,58.707z"/> </g></symbol><symbol id="edit-2" viewBox="0 0 55.25 55.25"><title>edit-2</title><path d="M52.618,2.631c-3.51-3.508-9.219-3.508-12.729,0L3.827,38.693C3.81,38.71,3.8,38.731,3.785,38.749 c-0.021,0.024-0.039,0.05-0.058,0.076c-0.053,0.074-0.094,0.153-0.125,0.239c-0.009,0.026-0.022,0.049-0.029,0.075 c-0.003,0.01-0.009,0.02-0.012,0.03l-3.535,14.85c-0.016,0.067-0.02,0.135-0.022,0.202C0.004,54.234,0,54.246,0,54.259 c0.001,0.114,0.026,0.225,0.065,0.332c0.009,0.025,0.019,0.047,0.03,0.071c0.049,0.107,0.11,0.21,0.196,0.296 c0.095,0.095,0.207,0.168,0.328,0.218c0.121,0.05,0.25,0.075,0.379,0.075c0.077,0,0.155-0.009,0.231-0.027l14.85-3.535 c0.027-0.006,0.051-0.021,0.077-0.03c0.034-0.011,0.066-0.024,0.099-0.039c0.072-0.033,0.139-0.074,0.201-0.123 c0.024-0.019,0.049-0.033,0.072-0.054c0.008-0.008,0.018-0.012,0.026-0.02l36.063-36.063C56.127,11.85,56.127,6.14,52.618,2.631z M51.204,4.045c2.488,2.489,2.7,6.397,0.65,9.137l-9.787-9.787C44.808,1.345,48.716,1.557,51.204,4.045z M46.254,18.895l-9.9-9.9 l1.414-1.414l9.9,9.9L46.254,18.895z M4.961,50.288c-0.391-0.391-1.023-0.391-1.414,0L2.79,51.045l2.554-10.728l4.422-0.491 l-0.569,5.122c-0.004,0.038,0.01,0.073,0.01,0.11c0,0.038-0.014,0.072-0.01,0.11c0.004,0.033,0.021,0.06,0.028,0.092 c0.012,0.058,0.029,0.111,0.05,0.165c0.026,0.065,0.057,0.124,0.095,0.181c0.031,0.046,0.062,0.087,0.1,0.127 c0.048,0.051,0.1,0.094,0.157,0.134c0.045,0.031,0.088,0.06,0.138,0.084C9.831,45.982,9.9,46,9.972,46.017 c0.038,0.009,0.069,0.03,0.108,0.035c0.036,0.004,0.072,0.006,0.109,0.006c0,0,0.001,0,0.001,0c0,0,0.001,0,0.001,0h0.001 c0,0,0.001,0,0.001,0c0.036,0,0.073-0.002,0.109-0.006l5.122-0.569l-0.491,4.422L4.204,52.459l0.757-0.757 C5.351,51.312,5.351,50.679,4.961,50.288z M17.511,44.809L39.889,22.43c0.391-0.391,0.391-1.023,0-1.414s-1.023-0.391-1.414,0 L16.097,43.395l-4.773,0.53l0.53-4.773l22.38-22.378c0.391-0.391,0.391-1.023,0-1.414s-1.023-0.391-1.414,0L10.44,37.738 l-3.183,0.354L34.94,10.409l9.9,9.9L17.157,47.992L17.511,44.809z M49.082,16.067l-9.9-9.9l1.415-1.415l9.9,9.9L49.082,16.067z"/></symbol><symbol id="edit-1" viewBox="0 0 469.331 469.331"><title>edit-1</title><path d="M438.931,30.403c-40.4-40.5-106.1-40.5-146.5,0l-268.6,268.5c-2.1,2.1-3.4,4.8-3.8,7.7l-19.9,147.4 c-0.6,4.2,0.9,8.4,3.8,11.3c2.5,2.5,6,4,9.5,4c0.6,0,1.2,0,1.8-0.1l88.8-12c7.4-1,12.6-7.8,11.6-15.2c-1-7.4-7.8-12.6-15.2-11.6 l-71.2,9.6l13.9-102.8l108.2,108.2c2.5,2.5,6,4,9.5,4s7-1.4,9.5-4l268.6-268.5c19.6-19.6,30.4-45.6,30.4-73.3 S458.531,49.903,438.931,30.403z M297.631,63.403l45.1,45.1l-245.1,245.1l-45.1-45.1L297.631,63.403z M160.931,416.803l-44.1-44.1 l245.1-245.1l44.1,44.1L160.931,416.803z M424.831,152.403l-107.9-107.9c13.7-11.3,30.8-17.5,48.8-17.5c20.5,0,39.7,8,54.2,22.4 s22.4,33.7,22.4,54.2C442.331,121.703,436.131,138.703,424.831,152.403z"/></symbol><symbol id="edit" viewBox="0 0 53.255 53.255"><title>edit</title><path style="fill:#D75A4A;" d="M39.598,2.343c3.124-3.124,8.19-3.124,11.314,0s3.124,8.19,0,11.314L39.598,2.343z"/><polygon style="fill:#ED8A19;" points="42.426,17.899 16.512,43.814 15.982,48.587 44.548,20.02 44.548,20.02 "/><polygon style="fill:#ED8A19;" points="10.325,42.93 15.098,42.4 41.012,16.485 36.77,12.243 10.855,38.157 "/><polygon style="fill:#ED8A19;" points="35.356,10.829 33.234,8.707 33.234,8.707 4.668,37.273 9.441,36.743 "/><polygon style="fill:#C7CAC7;" points="48.79,15.778 48.79,15.778 50.912,13.657 39.598,2.343 37.476,4.465 37.477,4.465 "/><polygon style="fill:#C7CAC7;" points="36.062,5.879 36.062,5.879 34.648,7.293 34.648,7.293 45.962,18.606 45.962,18.606 47.376,17.192 47.376,17.192 "/><path style="fill:#FBCE9D;" d="M14.424,44.488l-5.122,0.569c-0.036,0.004-0.073,0.006-0.109,0.006c0,0-0.001,0-0.001,0H9.192H9.192 c-0.001,0-0.001,0-0.001,0c-0.036,0-0.073-0.002-0.109-0.006c-0.039-0.004-0.071-0.026-0.108-0.035 c-0.072-0.017-0.141-0.035-0.207-0.067c-0.05-0.024-0.093-0.053-0.138-0.084c-0.057-0.04-0.109-0.083-0.157-0.134 c-0.038-0.04-0.069-0.081-0.1-0.127c-0.038-0.057-0.069-0.116-0.095-0.181c-0.022-0.054-0.038-0.107-0.05-0.165 c-0.007-0.032-0.024-0.059-0.028-0.092c-0.004-0.038,0.01-0.073,0.01-0.11c0-0.038-0.014-0.072-0.01-0.11l0.569-5.122l-5.122,0.569 c-0.037,0.004-0.075,0.006-0.111,0.006c-0.079,0-0.152-0.024-0.227-0.042L0.442,51.399l2.106-2.106c0.391-0.391,1.023-0.391,1.414,0 s0.391,1.023,0,1.414l-2.106,2.106l12.03-2.864c-0.026-0.109-0.043-0.222-0.03-0.339L14.424,44.488z"/><path style="fill:#38454F;" d="M3.962,49.293c-0.391-0.391-1.023-0.391-1.414,0l-2.106,2.106L0,53.255l1.856-0.442l2.106-2.106 C4.352,50.316,4.352,49.684,3.962,49.293z"/><polygon style="fill:#F2ECBF;" points="48.79,15.778 37.477,4.465 37.476,4.465 36.062,5.879 36.062,5.879 47.376,17.192 47.376,17.192 48.79,15.778 "/><path style="fill:#EBBA16;" d="M41.012,16.485L15.098,42.4l-4.773,0.53l0.53-4.773L36.77,12.243l-1.414-1.414L9.441,36.743 l-4.773,0.53l-1.133,1.133l-0.228,0.957c0.075,0.018,0.147,0.042,0.227,0.042c0.036,0,0.074-0.002,0.111-0.006l5.122-0.569 l-0.569,5.122c-0.004,0.038,0.01,0.073,0.01,0.11c0,0.038-0.014,0.072-0.01,0.11c0.004,0.033,0.021,0.06,0.028,0.092 c0.012,0.057,0.029,0.112,0.05,0.165c0.026,0.064,0.057,0.124,0.095,0.181c0.03,0.045,0.063,0.088,0.1,0.127 c0.047,0.05,0.1,0.094,0.157,0.134c0.044,0.031,0.089,0.061,0.138,0.084c0.065,0.031,0.135,0.05,0.207,0.067 c0.038,0.009,0.069,0.03,0.108,0.035c0.036,0.004,0.072,0.006,0.109,0.006h0.001h0h0.001h0.001c0,0,0.001,0,0.001,0h0 c0.035,0,0.072-0.002,0.109-0.006l5.122-0.569l-0.569,5.122c-0.013,0.118,0.004,0.23,0.03,0.339l0.963-0.229l1.133-1.132l0.53-4.773 l25.914-25.915L41.012,16.485z"/><polygon style="fill:#F2ECBF;" points="45.962,18.606 34.648,7.293 34.648,7.293 33.234,8.707 33.234,8.707 35.356,10.829 36.77,12.243 41.012,16.485 42.426,17.899 44.548,20.02 44.548,20.02 45.962,18.606 "/></symbol><symbol id="document" viewBox="0 0 60 60"><title>document</title><path d="M38.914,0H6.5v60h47V14.586L38.914,0z M39.5,3.414L50.086,14H39.5V3.414z M8.5,58V2h29v14h14v42H8.5z"/><path d="M16.5,17h9c0.552,0,1-0.447,1-1s-0.448-1-1-1h-9c-0.552,0-1,0.447-1,1S15.948,17,16.5,17z"/><path d="M33.5,37h-17c-0.552,0-1,0.447-1,1s0.448,1,1,1h17c0.552,0,1-0.447,1-1S34.052,37,33.5,37z"/><path d="M43.5,30h-7c-0.552,0-1,0.447-1,1s0.448,1,1,1h7c0.552,0,1-0.447,1-1S44.052,30,43.5,30z"/><path d="M16.5,25h5c0.552,0,1-0.447,1-1s-0.448-1-1-1h-5c-0.552,0-1,0.447-1,1S15.948,25,16.5,25z"/><path d="M31.5,25h7c0.552,0,1-0.447,1-1s-0.448-1-1-1h-7c-0.552,0-1,0.447-1,1S30.948,25,31.5,25z"/><path d="M25.5,24c0,0.26,0.11,0.52,0.29,0.71C25.98,24.89,26.24,25,26.5,25c0.26,0,0.52-0.11,0.71-0.29 c0.18-0.19,0.29-0.45,0.29-0.71c0-0.261-0.11-0.521-0.29-0.71c-0.37-0.37-1.04-0.37-1.42,0C25.61,23.479,25.5,23.739,25.5,24z"/><path d="M21.5,30c-0.552,0-1,0.447-1,1s0.448,1,1,1h10c0.552,0,1-0.447,1-1s-0.448-1-1-1H21.5z"/><path d="M16.5,32c0.26,0,0.52-0.11,0.71-0.29c0.18-0.19,0.29-0.45,0.29-0.71c0-0.261-0.11-0.521-0.29-0.71 c-0.37-0.37-1.05-0.37-1.42,0c-0.18,0.189-0.29,0.439-0.29,0.71c0,0.26,0.11,0.52,0.29,0.71C15.98,31.89,16.24,32,16.5,32z"/><path d="M43.5,44h-7c-0.552,0-1,0.447-1,1s0.448,1,1,1h7c0.552,0,1-0.447,1-1S44.052,44,43.5,44z"/><path d="M31.5,44h-10c-0.552,0-1,0.447-1,1s0.448,1,1,1h10c0.552,0,1-0.447,1-1S32.052,44,31.5,44z"/><path d="M15.79,44.29c-0.18,0.18-0.29,0.439-0.29,0.71c0,0.27,0.1,0.52,0.29,0.71C15.98,45.89,16.24,46,16.5,46 c0.27,0,0.52-0.11,0.71-0.29c0.18-0.19,0.29-0.45,0.29-0.71c0-0.271-0.11-0.521-0.29-0.7C16.84,43.92,16.17,43.92,15.79,44.29z"/><path d="M42.79,23.29c-0.18,0.189-0.29,0.449-0.29,0.71c0,0.26,0.11,0.52,0.29,0.71C42.98,24.89,43.24,25,43.5,25 c0.26,0,0.52-0.11,0.71-0.29c0.19-0.19,0.29-0.45,0.29-0.71c0-0.261-0.1-0.521-0.29-0.71C43.83,22.92,43.17,22.92,42.79,23.29z"/><path d="M39.21,38.71c0.18-0.19,0.29-0.45,0.29-0.71c0-0.261-0.11-0.521-0.29-0.71c-0.38-0.37-1.05-0.37-1.42,0 c-0.18,0.189-0.29,0.449-0.29,0.71c0,0.26,0.11,0.52,0.29,0.71C37.98,38.899,38.23,39,38.5,39S39.02,38.89,39.21,38.71z"/><path d="M42.79,37.29c-0.18,0.189-0.29,0.449-0.29,0.71c0,0.26,0.11,0.52,0.29,0.71C42.98,38.89,43.23,39,43.5,39 s0.52-0.11,0.71-0.29c0.18-0.19,0.29-0.45,0.29-0.71c0-0.261-0.11-0.521-0.29-0.71C43.84,36.92,43.16,36.92,42.79,37.29z"/></symbol></svg>