<svg xmlns="http://www.w3.org/2000/svg" style="display: none;"><symbol id="search" viewBox="0 0 512 512"><title>search</title><circle style="fill:#005C83;" cx="256" cy="256" r="256"/><path style="fill:#00263F;" d="M300.619,508.117C420.732,487.004,512,382.164,512,256c0-2.355-0.037-4.7-0.1-7.04L375.443,112.504 L96.19,203.707l91.463,91.463l-89.079,10.901L300.619,508.117z"/><path style="fill:#FFECB3;" d="M130.532,205.68h233.912v-82.176H130.532c-22.692,0-41.088,18.396-41.088,41.088l0,0 C89.443,187.284,107.839,205.68,130.532,205.68z"/><rect x="255.95" y="123.5" style="fill:#FFD863;" width="108.49" height="82.18"/><path style="fill:#FF6838;" d="M375.443,216.68H130.531c-28.722,0-52.088-23.367-52.088-52.088 c0-28.722,23.366-52.088,52.088-52.088h244.912v22H130.531c-16.591,0-30.088,13.498-30.088,30.088 c0,16.591,13.497,30.088,30.088,30.088h244.912V216.68z"/><g> <rect x="255.95" y="194.68" style="fill:#AE4E32;" width="119.49" height="22"/> <rect x="255.95" y="112.5" style="fill:#AE4E32;" width="119.49" height="22"/> </g><path style="fill:#FFECB3;" d="M130.532,306.072h233.912v-82.176H130.532c-22.692,0-41.088,18.396-41.088,41.088l0,0 C89.443,287.676,107.839,306.072,130.532,306.072z"/><rect x="255.95" y="223.9" style="fill:#FFD863;" width="108.49" height="82.18"/><g> <path style="fill:#35CCFF;" d="M375.443,317.072H130.531c-28.722,0-52.088-23.367-52.088-52.088 c0-28.722,23.366-52.088,52.088-52.088h244.912v22H130.531c-16.591,0-30.088,13.498-30.088,30.088 c0,16.591,13.497,30.088,30.088,30.088h244.912V317.072z"/> <rect x="255.95" y="295.07" style="fill:#35CCFF;" width="119.49" height="22"/> <rect x="255.95" y="212.9" style="fill:#35CCFF;" width="119.49" height="22"/> </g><rect x="262.932" y="353.419" transform="matrix(-0.7071 -0.7071 0.7071 -0.7071 277.9843 869.9824)" style="fill:#FF6838;" width="112.479" height="48"/><rect x="270.515" y="356.55" transform="matrix(-0.7071 -0.7071 0.7071 -0.7071 296.2982 862.382)" style="fill:#AE4E32;" width="112.479" height="26.551"/><circle style="fill:#FFFFFF;" cx="224.18" cy="287.74" r="74.56"/><path style="fill:#E0E0E0;" d="M298.746,287.737c0-41.181-33.384-74.564-74.564-74.564c-20.158,0-38.435,8.013-51.856,21.011 l105.409,105.409C290.733,326.172,298.746,307.895,298.746,287.737z"/><path style="fill:#FFCF35;" d="M224.182,379.301c-50.489,0-91.564-41.076-91.564-91.564s41.075-91.564,91.564-91.564 s91.564,41.075,91.564,91.564S274.671,379.301,224.182,379.301z M224.182,230.172c-31.741,0-57.564,25.823-57.564,57.564 s25.823,57.564,57.564,57.564s57.564-25.823,57.564-57.564C281.746,255.996,255.923,230.172,224.182,230.172z"/><path style="fill:#FFB344;" d="M224.182,230.172c31.741,0,57.564,25.823,57.564,57.564c0,15.44-6.122,29.468-16.051,39.816 l24.041,24.041c16.084-16.508,26.01-39.043,26.01-63.857c0-50.489-41.075-91.564-91.564-91.564c-24.814,0-47.349,9.926-63.856,26.01 l24.041,24.041C194.714,236.294,208.742,230.172,224.182,230.172z"/></symbol><symbol id="open-book" viewBox="0 0 496 496"><title>open-book</title><g> <path style="fill:#FF4F19;" d="M472,116.07H24c-13.234,0-24,10.766-24,24v264c0,13.234,10.766,24,24,24h448 c13.234,0,24-10.766,24-24v-264C496,126.836,485.234,116.07,472,116.07z"/> </g><g> <rect x="224" y="388.07" style="fill:#E3001E;" width="48" height="40"/> </g><g> <path style="fill:#E6BE8A;" d="M464.219,364.07v24c0,4.418-3.582,8-8,8h-416c-4.418,0-8-3.582-8-8v-24l47.781-24l192,8l160-8 L464.219,364.07z"/> </g><g> <path style="fill:#FFEBB7;" d="M43.443,375.116c65.739-27.139,140.084-25.487,204.776,4.954v-288 C181.394,60.625,104.27,59.9,36.97,89.894c-2.896,1.291-4.751,4.222-4.751,7.393v270.515 C32.219,373.581,38.102,377.321,43.443,375.116z"/> </g><g> <path style="fill:#FFD788;" d="M248.219,380.07c64.692-30.442,139.037-32.093,204.776-4.954 c5.341,2.205,11.224-1.535,11.224-7.314V97.287c0-3.171-1.855-6.102-4.751-7.393c-67.3-29.994-144.425-29.269-211.249,2.176 V380.07z"/> </g><g> <g> <path style="fill:#868491;" d="M280.219,327.824c-3.406,0-6.563-2.188-7.633-5.605c-1.32-4.215,1.023-8.707,5.234-10.031 c8.094-2.543,16.422-4.715,24.758-6.461c4.313-0.906,8.563,1.855,9.469,6.188c0.906,4.324-1.859,8.563-6.188,9.469 c-7.828,1.641-15.648,3.684-23.242,6.07C281.82,327.703,281.008,327.824,280.219,327.824z"/> </g> </g><g> <g> <path style="fill:#868491;" d="M432.219,327.824c-0.789,0-1.602-0.121-2.398-0.371c-30.187-9.48-61.477-13.031-92.969-10.523 c-4.469,0.32-8.258-2.941-8.609-7.344c-0.344-4.406,2.938-8.258,7.344-8.609c33.609-2.641,66.891,1.117,99.031,11.211 c4.211,1.324,6.555,5.816,5.234,10.031C438.781,325.637,435.625,327.824,432.219,327.824z"/> </g> </g><g> <g> <path style="fill:#868491;" d="M432.219,295.73c-0.789,0-1.602-0.121-2.398-0.371c-48.156-15.125-99.047-15.125-147.203,0 c-4.234,1.324-8.719-1.023-10.031-5.234c-1.32-4.215,1.023-8.707,5.234-10.031c51.297-16.109,105.5-16.109,156.797,0 c4.211,1.324,6.555,5.816,5.234,10.031C438.781,293.543,435.625,295.73,432.219,295.73z"/> </g> </g><g> <g> <path style="fill:#868491;" d="M280.219,263.824c-3.406,0-6.563-2.188-7.633-5.605c-1.32-4.215,1.023-8.707,5.234-10.031 c29.445-9.242,60-13.176,90.781-11.73c4.406,0.211,7.82,3.957,7.609,8.371c-0.203,4.422-3.891,7.797-8.375,7.613 c-28.883-1.363-57.578,2.332-85.219,11.012C281.82,263.703,281.008,263.824,280.219,263.824z"/> </g> </g><g> <g> <path style="fill:#868491;" d="M432.219,263.824c-0.789,0-1.602-0.121-2.398-0.371c-10.109-3.176-20.539-5.723-31-7.566 c-4.352-0.77-7.258-4.918-6.484-9.27c0.766-4.348,4.922-7.258,9.266-6.488c11.141,1.965,22.242,4.676,33.016,8.059 c4.211,1.324,6.555,5.816,5.234,10.031C438.781,261.637,435.625,263.824,432.219,263.824z"/> </g> </g><g> <g> <path style="fill:#868491;" d="M432.219,231.73c-0.789,0-1.602-0.121-2.398-0.371c-48.156-15.125-99.047-15.125-147.203,0 c-4.234,1.316-8.719-1.027-10.031-5.234c-1.32-4.215,1.023-8.707,5.234-10.031c51.297-16.109,105.5-16.109,156.797,0 c4.211,1.324,6.555,5.816,5.234,10.031C438.781,229.543,435.625,231.73,432.219,231.73z"/> </g> </g><g> <g> <path style="fill:#868491;" d="M280.219,199.731c-3.406,0-6.563-2.188-7.633-5.605c-1.32-4.215,1.023-8.707,5.234-10.031 c16.094-5.055,32.75-8.562,49.523-10.422c4.453-0.535,8.352,2.684,8.836,7.066c0.484,4.391-2.68,8.348-7.07,8.832 c-15.742,1.75-31.391,5.043-46.492,9.789C281.82,199.609,281.008,199.731,280.219,199.731z"/> </g> </g><g> <g> <path style="fill:#868491;" d="M432.219,199.731c-0.789,0-1.602-0.121-2.398-0.371c-22.586-7.098-46.039-10.887-69.719-11.258 c-4.422-0.07-7.945-3.707-7.875-8.125c0.07-4.414,3.93-8.133,8.125-7.875c25.219,0.398,50.211,4.434,74.266,11.992 c4.211,1.324,6.555,5.816,5.234,10.031C438.773,197.543,435.625,199.731,432.219,199.731z"/> </g> </g><g> <g> <path style="fill:#868491;" d="M280.219,167.824c-3.406,0-6.563-2.188-7.633-5.605c-1.32-4.215,1.023-8.707,5.234-10.031 c34.859-10.949,70.937-14.465,107.281-10.422c4.391,0.484,7.555,4.441,7.07,8.832c-0.484,4.387-4.359,7.637-8.836,7.066 c-34.094-3.781-67.992-0.496-100.719,9.789C281.82,167.703,281.008,167.824,280.219,167.824z"/> </g> </g><g> <g> <path style="fill:#868491;" d="M432.219,167.824c-0.789,0-1.602-0.121-2.398-0.371c-5.078-1.598-10.289-3.047-15.5-4.316 c-4.289-1.047-6.922-5.375-5.875-9.668s5.344-6.918,9.672-5.879c5.539,1.352,11.086,2.898,16.5,4.598 c4.211,1.324,6.555,5.816,5.234,10.031C438.781,165.637,435.625,167.824,432.219,167.824z"/> </g> </g><g> <g> <path style="fill:#868491;" d="M280.219,135.731c-3.406,0-6.563-2.191-7.633-5.609c-1.32-4.219,1.023-8.707,5.242-10.027 c5.5-1.727,11.047-3.27,16.492-4.594c4.266-1.051,8.617,1.59,9.664,5.883c1.047,4.293-1.594,8.621-5.883,9.664 c-5.109,1.242-10.32,2.691-15.492,4.312C281.812,135.609,281.008,135.731,280.219,135.731z"/> </g> </g><g> <g> <path style="fill:#868491;" d="M432.219,135.731c-0.789,0-1.602-0.121-2.398-0.371c-32.734-10.285-66.617-13.566-100.719-9.789 c-4.422,0.539-8.352-2.684-8.836-7.066c-0.484-4.391,2.68-8.348,7.07-8.832c36.328-4.043,72.414-0.527,107.281,10.422 c4.211,1.324,6.555,5.816,5.234,10.031C438.781,133.543,435.625,135.731,432.219,135.731z"/> </g> </g><g> <g> <path style="fill:#B4B6BC;" d="M64.219,327.824c-3.406,0-6.562-2.188-7.633-5.605c-1.32-4.215,1.023-8.707,5.234-10.031 c8.094-2.543,16.422-4.715,24.758-6.461c4.32-0.906,8.563,1.855,9.469,6.188c0.906,4.324-1.859,8.563-6.188,9.469 c-7.828,1.641-15.648,3.684-23.242,6.07C65.82,327.703,65.008,327.824,64.219,327.824z"/> </g> </g><g> <g> <path style="fill:#B4B6BC;" d="M216.219,327.824c-0.789,0-1.602-0.121-2.398-0.371c-30.18-9.48-61.477-13.031-92.969-10.523 c-4.531,0.32-8.258-2.941-8.609-7.344c-0.344-4.406,2.938-8.258,7.344-8.609c33.609-2.641,66.883,1.117,99.031,11.211 c4.211,1.324,6.555,5.816,5.234,10.031C222.781,325.637,219.625,327.824,216.219,327.824z"/> </g> </g><g> <g> <path style="fill:#B4B6BC;" d="M216.219,295.73c-0.789,0-1.602-0.121-2.398-0.371c-48.156-15.125-99.047-15.125-147.203,0 c-4.25,1.324-8.719-1.023-10.031-5.234c-1.32-4.215,1.023-8.707,5.234-10.031c51.297-16.109,105.5-16.109,156.797,0 c4.211,1.324,6.555,5.816,5.234,10.031C222.781,293.543,219.625,295.73,216.219,295.73z"/> </g> </g><g> <g> <path style="fill:#B4B6BC;" d="M64.219,263.824c-3.406,0-6.562-2.188-7.633-5.605c-1.32-4.215,1.023-8.707,5.234-10.031 c29.445-9.242,60.023-13.176,90.781-11.73c4.406,0.211,7.82,3.957,7.609,8.371c-0.211,4.422-3.938,7.797-8.375,7.613 c-28.891-1.363-57.578,2.332-85.219,11.012C65.82,263.703,65.008,263.824,64.219,263.824z"/> </g> </g><g> <g> <path style="fill:#B4B6BC;" d="M216.219,263.824c-0.789,0-1.602-0.121-2.398-0.371c-10.109-3.176-20.539-5.723-31-7.566 c-4.352-0.77-7.258-4.918-6.484-9.27c0.758-4.348,4.93-7.258,9.266-6.488c11.141,1.965,22.242,4.676,33.016,8.059 c4.211,1.324,6.555,5.816,5.234,10.031C222.781,261.637,219.625,263.824,216.219,263.824z"/> </g> </g><g> <g> <path style="fill:#B4B6BC;" d="M64.219,231.73c-3.406,0-6.562-2.188-7.633-5.605c-1.32-4.215,1.023-8.707,5.234-10.031 c45.477-14.277,94-15.867,140.289-4.594c4.297,1.047,6.93,5.375,5.883,9.668c-1.047,4.289-5.398,6.902-9.664,5.879 c-43.469-10.598-89.016-9.094-131.711,4.313C65.82,231.609,65.008,231.73,64.219,231.73z"/> </g> </g><g> <g> <path style="fill:#B4B6BC;" d="M64.219,199.731c-3.406,0-6.562-2.188-7.633-5.605c-1.32-4.215,1.023-8.707,5.234-10.031 c16.094-5.055,32.75-8.562,49.523-10.422c4.414-0.535,8.352,2.684,8.836,7.066c0.484,4.391-2.68,8.348-7.07,8.832 c-15.742,1.75-31.391,5.043-46.492,9.789C65.82,199.609,65.008,199.731,64.219,199.731z"/> </g> </g><g> <g> <path style="fill:#B4B6BC;" d="M200.227,195.273c-0.625,0-1.266-0.074-1.898-0.227c-17.734-4.32-35.984-6.66-54.227-6.945 c-4.422-0.07-7.945-3.707-7.875-8.125c0.07-4.414,3.523-8.133,8.125-7.875c19.437,0.309,38.867,2.797,57.758,7.398 c4.297,1.047,6.93,5.375,5.883,9.668C207.101,192.824,203.828,195.273,200.227,195.273z"/> </g> </g><g> <g> <path style="fill:#B4B6BC;" d="M64.219,167.824c-3.406,0-6.562-2.188-7.633-5.605c-1.32-4.215,1.023-8.707,5.234-10.031 c34.867-10.949,70.945-14.465,107.281-10.422c4.391,0.484,7.555,4.441,7.07,8.832c-0.484,4.387-4.391,7.637-8.836,7.066 c-34.094-3.781-67.992-0.496-100.719,9.789C65.82,167.703,65.008,167.824,64.219,167.824z"/> </g> </g><g> <g> <path style="fill:#B4B6BC;" d="M64.219,135.731c-3.406,0-6.562-2.191-7.633-5.609c-1.32-4.219,1.023-8.707,5.242-10.027 c5.5-1.727,11.047-3.27,16.492-4.594c4.258-1.051,8.617,1.59,9.664,5.883c1.047,4.293-1.594,8.621-5.883,9.664 c-5.109,1.242-10.32,2.691-15.492,4.312C65.812,135.609,65.008,135.731,64.219,135.731z"/> </g> </g><g> <g> <path style="fill:#B4B6BC;" d="M200.227,131.27c-0.625,0-1.266-0.074-1.898-0.227c-27.961-6.809-56.633-8.641-85.227-5.473 c-4.391,0.539-8.352-2.676-8.836-7.066c-0.484-4.391,2.68-8.348,7.07-8.832c30.445-3.391,61-1.422,90.773,5.824 c4.297,1.047,6.93,5.375,5.883,9.668C207.101,128.82,203.828,131.27,200.227,131.27z"/> </g> </g><g> <path style="fill:#5D647F;" d="M200.219,216.064c0.001,3.194,3.561,5.1,6.219,3.328l17.781-11.854L242,219.392 c2.658,1.772,6.219-0.133,6.219-3.328V92.734c0-3.16-1.843-6.077-4.731-7.361c-12.457-5.54-25.259-9.983-38.262-13.418 c-2.537-0.67-5.03,1.292-5.029,3.916L200.219,216.064z"/> </g></symbol><symbol id="books" viewBox="0 0 504 504"><title>books</title><g> <path style="fill:#FFEBB7;" d="M479.781,476h-375c-40.317,0-73-32.683-73-73v-14c0-40.317,32.683-73,73-73h375V476z"/> </g><g> <rect x="47.781" y="332" style="fill:#5C546A;" width="40" height="128"/> </g><g> <path style="fill:#FFEBB7;" d="M441.781,292h-426V180h426c12.15,0,22,9.85,22,22v68C463.781,282.15,453.931,292,441.781,292z"/> </g><g> <rect x="71.781" y="36" style="fill:#FFEBB7;" width="408" height="120"/> </g><g> <path style="fill:#00C37A;" d="M480,492H112c-52.934,0-96-43.062-96-96s43.066-96,96-96h368c8.836,0,16,7.164,16,16 s-7.164,16-16,16H112c-35.289,0-64,28.711-64,64s28.711,64,64,64h368c8.836,0,16,7.164,16,16S488.836,492,480,492z"/> </g><g> <g> <path style="fill:#009BCA;" d="M432,300H8c-4.422,0-8-3.578-8-8s3.578-8,8-8h424c13.234,0,24-10.766,24-24v-48 c0-13.234-10.766-24-24-24H8c-4.422,0-8-3.578-8-8s3.578-8,8-8h424c22.055,0,40,17.945,40,40v48C472,282.055,454.055,300,432,300 z"/> </g> </g><g> <path style="fill:#E6BE94;" d="M479.781,76h-368c-4.418,0-8-3.582-8-8l0,0c0-4.418,3.582-8,8-8h368V76z"/> </g><g> <path style="fill:#E6BE94;" d="M479.781,108h-368c-4.418,0-8-3.582-8-8l0,0c0-4.418,3.582-8,8-8h368V108z"/> </g><g> <path style="fill:#E6BE94;" d="M479.781,140h-368c-4.418,0-8-3.582-8-8l0,0c0-4.418,3.582-8,8-8h368V140z"/> </g><g> <path style="fill:#E6BE94;" d="M15.781,204h416c4.418,0,8,3.582,8,8l0,0c0,4.418-3.582,8-8,8h-416 C15.781,220,15.781,204,15.781,204z"/> </g><g> <path style="fill:#E6BE94;" d="M15.781,236h416c4.418,0,8,3.582,8,8l0,0c0,4.418-3.582,8-8,8h-416 C15.781,252,15.781,236,15.781,236z"/> </g><g> <path style="fill:#E6BE94;" d="M15.781,268h416c4.418,0,8,3.582,8,8l0,0c0,4.418-3.582,8-8,8h-416 C15.781,284,15.781,268,15.781,268z"/> </g><g> <path style="fill:#FF4F19;" d="M488,172H104c-26.469,0-48-21.531-48-48V60c0-26.469,21.531-48,48-48h384c8.836,0,16,7.164,16,16 s-7.164,16-16,16H104c-8.824,0-16,7.176-16,16v64c0,8.82,7.176,16,16,16h384c8.836,0,16,7.164,16,16S496.836,172,488,172z"/> </g><g> <path style="fill:#E6BE94;" d="M111.781,444c-4.422,0-8,3.578-8,8s3.578,8,8,8h368v-16H111.781z"/> </g><g> <path style="fill:#E6BE94;" d="M111.781,412c-4.422,0-8,3.578-8,8s3.578,8,8,8h368v-16H111.781z"/> </g><g> <path style="fill:#E6BE94;" d="M111.781,380c-4.422,0-8,3.578-8,8s3.578,8,8,8h368v-16H111.781z"/> </g><g> <path style="fill:#E6BE94;" d="M111.781,348c-4.422,0-8,3.578-8,8s3.578,8,8,8h368v-16H111.781z"/> </g></symbol><symbol id="book" viewBox="0 0 512 512"><title>book</title><path style="fill:#FFCA4F;" d="M256.001,512C397,512,512,397.001,512,256.001C512,115,397,0,256.001,0C115.001,0,0,115,0,256.001 C0,397.001,115.001,512,256.001,512z"/><path style="fill:#20D0C2;" d="M146.447,100.32h255.168l57.901,263.754l-21.206,0.114l-0.508,93.121l21.856,0.114l-0.143,15.561 H114.584c-32.646-2.614-29.734-62.494-31.48-78.522l29.062-268.12C112.278,114.427,124.292,100.32,146.447,100.32L146.447,100.32z"/><path style="fill:#FF5B61;" d="M146.447,100.32h24.438l-22.243,372.664l-38.143-1.097c-31.896-1.253-36.66-77.503-26.013-105.148 l27.681-240.398C112.279,114.427,124.294,100.32,146.447,100.32L146.447,100.32z"/><path style="fill:#FFFFFF;" d="M119.026,364.045h333.877c-15.15,31.942-14.757,63.443,0,94.526H119.026 C83.211,458.572,83.216,364.045,119.026,364.045z"/><path style="fill:#ECF0F1;" d="M94.749,390.031h349.218c-0.204,0.946-0.392,1.893-0.568,2.837H94.078 C94.287,391.911,94.507,390.962,94.749,390.031L94.749,390.031z M442.333,399.975L442.333,399.975 c-0.11,0.946-0.204,1.892-0.284,2.837H92.555c0.086-0.951,0.194-1.898,0.314-2.837H442.333z M441.699,409.919L441.699,409.919 c-0.014,0.946-0.014,1.891,0,2.837H92.184c-0.014-0.946-0.014-1.891,0-2.837H441.699z M442.054,419.861L442.054,419.861 c0.083,0.949,0.176,1.893,0.284,2.838H92.874c-0.119-0.941-0.224-1.888-0.311-2.838H442.054z M443.405,429.805L443.405,429.805 c0.174,0.944,0.364,1.891,0.568,2.837H94.763c-0.246-0.934-0.466-1.88-0.674-2.837H443.405z M445.748,439.746L445.748,439.746 c0.269,0.946,0.553,1.893,0.851,2.837H98.294c-0.428-0.916-0.838-1.865-1.22-2.837H445.748L445.748,439.746z M449.083,449.69 L449.083,449.69c0.366,0.946,0.745,1.893,1.136,2.837H105.024c-0.872-0.866-1.699-1.816-2.484-2.837H449.083z"/><path style="fill:#FF5B61;" d="M134.059,412.959h52.174V512l-26.304-32.31L134.059,512L134.059,412.959L134.059,412.959z"/><path style="fill:#DFE1E3;" d="M153.961,383.864H422.87h15.333h7.269c1.809-6.567,4.271-13.148,7.401-19.753 c0.008-0.021,0.02-0.044,0.032-0.065H429.04H155.145h-36.121c-33.139,0-35.615,80.947-7.417,93.027 c-9.549-27.879-1.921-73.209,22.878-73.209L153.961,383.864L153.961,383.864z"/><g> <path style="fill:#ECF0F1;" d="M250.233,314.794h100.579v-7.213H250.233V314.794z"/> <path style="fill:#ECF0F1;" d="M258.329,328.435h84.389v-5.401h-84.389V328.435z"/> </g></symbol><symbol id="bookshelf" viewBox="0 0 512.438 512.438"><title>bookshelf</title><g> <path style="fill:#FF4F19;" d="M424,116.219h-40c-4.418,0-8,3.582-8,8v216h56v-216C432,119.801,428.418,116.219,424,116.219z"/> </g><g> <path style="fill:#E3001E;" d="M404,116.219h-20c-4.418,0-8,3.582-8,8v216h28V116.219z"/> </g><g> <path style="fill:#E3001E;" d="M168.219,84.219H120c-4.418,0-8,3.582-8,8v248h64.219v-248 C176.219,87.801,172.637,84.219,168.219,84.219z"/> </g><g> <path style="fill:#FF4F19;" d="M168.219,84.219H144v256h32.219v-248C176.219,87.801,172.637,84.219,168.219,84.219z"/> </g><g> <g> <path style="fill:#868491;" d="M80,452.219c-2.977,0-5.781-1.668-7.156-4.422l-40-80c-1.977-3.953-0.375-8.758,3.578-10.734 c3.945-1.969,8.758-0.375,10.734,3.578L72,410.332v-46.113c0-4.418,3.578-8,8-8s8,3.582,8,8v80c0,3.711-2.555,6.934-6.164,7.785 C81.227,452.149,80.609,452.219,80,452.219z"/> </g> </g><g> <g> <path style="fill:#868491;" d="M432.219,452.219c-0.609,0-1.227-0.07-1.836-0.215c-3.609-0.852-6.164-4.074-6.164-7.785v-80 c0-4.418,3.578-8,8-8s8,3.582,8,8v46.113l24.844-49.691c1.984-3.953,6.781-5.547,10.734-3.578 c3.953,1.977,5.555,6.781,3.578,10.734l-40,80C438,450.551,435.195,452.219,432.219,452.219z"/> </g> </g><g> <path style="fill:#5D647F;" d="M248,84.219h-16c-4.418,0-8,3.582-8,8v248h32v-248C256,87.801,252.418,84.219,248,84.219z"/> </g><g> <path style="fill:#4BB9EC;" d="M368,84.219h-16c-4.418,0-8,3.582-8,8v248h32v-248C376,87.801,372.418,84.219,368,84.219z"/> </g><g> <path style="fill:#FF9100;" d="M104,108.219H88c-4.418,0-8,3.582-8,8v223.125c0,0.483,0.392,0.875,0.875,0.875H112v-224 C112,111.801,108.418,108.219,104,108.219z"/> </g><g> <path style="fill:#00C37A;" d="M72,132.219H48c-4.418,0-8,3.582-8,8v200h40v-200C80,135.801,76.418,132.219,72,132.219z"/> </g><g> <path style="fill:#5D647F;" d="M464,100.219h-24c-4.418,0-8,3.582-8,8v232h40v-232C472,103.801,468.418,100.219,464,100.219z"/> </g><g> <path style="fill:#FF9100;" d="M336,60.219h-40c-4.418,0-8,3.582-8,8v272h56v-272C344,63.801,340.418,60.219,336,60.219z"/> </g><g> <path style="fill:#00C37A;" d="M280,116.219h-16c-4.418,0-8,3.582-8,8v216h32v-216C288,119.801,284.418,116.219,280,116.219z"/> </g><g> <path style="fill:#4BB9EC;" d="M216,100.219h-32c-4.418,0-8,3.582-8,8v232h48v-232C224,103.801,220.418,100.219,216,100.219z"/> </g><g> <path style="fill:#E6BE8A;" d="M504.438,372.219H8c-4.418,0-8-3.582-8-8v-16c0-4.418,3.582-8,8-8h496.438c4.418,0,8,3.582,8,8v16 C512.438,368.637,508.856,372.219,504.438,372.219z"/> </g><g> <rect x="112" y="108.219" style="fill:#5D647F;" width="32" height="16"/> </g><g> <rect x="144" y="108.219" style="fill:#868491;" width="32" height="16"/> </g><g> <rect x="112" y="300.219" style="fill:#5D647F;" width="32" height="16"/> </g><g> <rect x="144" y="300.219" style="fill:#868491;" width="32" height="16"/> </g><g> <g> <rect x="272.219" y="140.219" style="fill:#00A077;" width="16" height="16"/> </g> </g><g> <g> <rect x="272.219" y="292.219" style="fill:#00A077;" width="16" height="16"/> </g> </g><g> <g> <rect x="376" y="140.219" style="fill:#FF9100;" width="28" height="16"/> </g> </g><g> <g> <rect x="376" y="292.219" style="fill:#FF9100;" width="28" height="16"/> </g> </g><g> <g> <rect x="404" y="140.219" style="fill:#FFCD00;" width="28" height="16"/> </g> </g><g> <g> <rect x="404" y="292.219" style="fill:#FFCD00;" width="28" height="16"/> </g> </g><g> <path style="fill:#009BCA;" d="M176,108.219v232h24v-240h-16C179.582,100.219,176,103.801,176,108.219z"/> </g><g> <path style="fill:#FF4F19;" d="M80,340.219h16v-232h-8c-4.418,0-8,3.582-8,8V340.219z"/> </g><g> <path style="fill:#00A077;" d="M40,340.219h20v-208H46.998c-3.865,0-6.998,3.133-6.998,6.998V340.219z"/> </g><g> <path style="fill:#5C546A;" d="M224,340.219h16v-256h-8c-4.418,0-8,3.582-8,8V340.219z"/> </g><g> <path style="fill:#00A077;" d="M256,340.219h16v-224h-8c-4.418,0-8,3.582-8,8V340.219z"/> </g><g> <g> <rect x="256" y="140.219" style="fill:#5D647F;" width="16" height="16"/> </g> </g><g> <g> <rect x="256" y="292.219" style="fill:#5D647F;" width="16" height="16"/> </g> </g><g> <path style="fill:#FF4F19;" d="M288,340.219h28v-280h-20c-4.418,0-8,3.582-8,8V340.219z"/> </g><g> <path style="fill:#009BCA;" d="M360,84.219h-8c-4.418,0-8,3.582-8,8v248h16V84.219z"/> </g><g> <path style="fill:#5C546A;" d="M452.22,100.219H440c-4.418,0-8,3.582-8,8v232h20.22V100.219z"/> </g><g> <path style="fill:#C9A07C;" d="M0,356.219v8c0,4.418,3.582,8,8,8h496.438c4.418,0,8-3.582,8-8v-8H0z"/> </g></symbol><symbol id="bookshelf-1" viewBox="0 0 460 460"><title>bookshelf-1</title><polygon style="fill:#C8523B;" points="79.3,142.409 76.625,178.724 129.148,178.724 131.823,142.409 "/><polygon style="fill:#E5C400;" points="64.064,350.686 116.462,352.431 117.258,341.445 64.86,339.697 "/><polygon style="fill:#C8523B;" points="62.211,376.441 114.734,376.441 116.462,352.46 64.064,350.732 "/><polygon style="fill:#C8523B;" points="64.86,339.697 117.258,341.445 127.097,202.93 74.574,202.93 "/><polygon style="fill:#E5C400;" points="74.574,202.93 127.097,202.93 129.148,178.724 76.625,178.724 "/><rect x="133.163" y="45.57" style="fill:#E5C400;" width="72.635" height="40.353"/><rect x="133.163" y="158.551" style="fill:#E5C400;" width="72.635" height="217.89"/><rect x="133.163" y="85.923" style="fill:#59595A;" width="72.635" height="72.629"/><rect x="213.857" y="194.869" style="fill:#608A7C;" width="52.463" height="44.379"/><rect x="213.857" y="239.248" style="fill:#ABCB57;" width="52.463" height="84.733"/><rect x="213.857" y="340.127" style="fill:#ABCB57;" width="52.463" height="36.314"/><rect x="213.857" y="323.981" style="fill:#E5C400;" width="52.463" height="16.146"/><rect x="213.857" y="134.334" style="fill:#ABCB57;" width="52.463" height="60.535"/><rect x="213.857" y="81.887" style="fill:#ABCB57;" width="52.463" height="40.347"/><rect x="213.857" y="122.234" style="fill:#608A7C;" width="52.463" height="12.1"/><polygon style="fill:#ABCB57;" points="293.736,72.751 268.411,74.513 269.502,88.276 294.814,86.508 "/><polygon style="fill:#608A7C;" points="292.283,376.441 317.74,376.441 314.966,341.399 289.759,344.652 "/><polygon style="fill:#608A7C;" points="291.512,43.559 266.202,45.57 268.411,74.513 293.736,72.751 "/><polygon style="fill:#608A7C;" points="294.814,86.508 269.502,88.276 287.938,321.523 313.145,318.289 "/><polygon style="fill:#ABCB57;" points="287.938,321.523 289.759,344.603 314.966,341.369 313.145,318.289 "/><rect x="322.8" y="323.981" style="fill:#C8523B;" width="72.635" height="52.46"/><rect x="322.8" y="106.092" style="fill:#C8523B;" width="72.635" height="157.371"/><rect x="322.8" y="263.462" style="fill:#E5C400;" width="72.635" height="60.519"/><rect y="376.441" style="fill:#B9BBBC;" width="460" height="40"/><rect y="396.441" style="opacity:0.3;fill:#5B5B5F;enable-background:new ;" width="460" height="20"/></symbol><symbol id="library" viewBox="0 0 512 512"><title>library</title><path d="m50 342h40v120h-40zm0 0" fill="#fa9600"/><path d="m50 22h40v120h-40zm0 0" fill="#32beb4"/><path d="m90 32h40v110h-40zm0 0" fill="#fa9600"/><path d="m130 22h50v120h-50zm0 0" fill="#fad79b"/><path d="m50 182h40v120h-40zm0 0" fill="#32beb4"/><path d="m90 192h40v110h-40zm0 0" fill="#9b4c14"/><path d="m130 182h40v120h-40zm0 0" fill="#e6e6e6"/><path d="m170 192h60v110h-60zm0 0" fill="#fa9600"/><path d="m270 142h40v160h-40zm0 0" fill="#fad79b"/><path d="m310 182h40v120h-40zm0 0" fill="#c8e7f9"/><path d="m350 192h52v110h-52zm0 0" fill="#ee3c32"/><path d="m230 142h40v160h-40zm0 0" fill="#8296aa"/><path d="m220 10h70v132h-70zm0 0" fill="#c8e7f9"/><path d="m180 42h40v100h-40zm0 0" fill="#ee3c32"/><path d="m290 22h40v120h-40zm0 0" fill="#9b4c14"/><path d="m330 10h40v132h-40zm0 0" fill="#8296aa"/><path d="m370 22h40v120h-40zm0 0" fill="#e6e6e6"/><path d="m410 22h52v120h-52zm0 0" fill="#4696e6"/><path d="m90 359h40v103h-40zm0 0" fill="#4696e6"/><path d="m170 359h40v103h-40zm0 0" fill="#32beb4"/><path d="m212.070312 405.355469 28.28125-28.28125 56.570313 56.566406-28.285156 28.285156zm0 0" fill="#f03c32"/><path d="m422 359h40v103h-40zm0 0" fill="#8296aa"/><path d="m382 382h40v80h-40zm0 0" fill="#fad79b"/><path d="m338 352h44v110h-44zm0 0" fill="#c8e7f9"/><path d="m462 10h40v492h-40zm0 0" fill="#ee3c32"/><path d="m10 10h40v492h-40zm0 0" fill="#ee3c32"/><path d="m502 0h-40c-5.523438 0-10 4.476562-10 10v2h-72v-2c0-5.523438-4.476562-10-10-10h-40c-5.523438 0-10 4.476562-10 10v2h-20v-2c0-5.523438-4.476562-10-10-10h-70c-5.523438 0-10 4.476562-10 10v22h-20v-10c0-5.523438-4.476562-10-10-10h-50c-5.523438 0-10 4.476562-10 10h-20c0-5.523438-4.476562-10-10-10h-30v-2c0-5.523438-4.476562-10-10-10h-40c-5.523438 0-10 4.476562-10 10v492c0 5.523438 4.476562 10 10 10h100c5.523438 0 10-4.476562 10-10s-4.476562-10-10-10h-50v-20h392v20h-10c-5.511719 0-10 4.488281-10 10s4.488281 10 10 10h60c5.523438 0 10-4.476562 10-10v-492c0-5.523438-4.476562-10-10-10zm-80 349c-5.523438 0-10 4.476562-10 10v13h-20v-20c0-5.523438-4.476562-10-10-10h-44c-5.523438 0-10 4.476562-10 10v100h-35.289062l11.285156-11.285156c1.875-1.875 2.929687-4.421875 2.929687-7.074219s-1.054687-5.195313-2.929687-7.070313l-56.566406-56.566406c-3.90625-3.90625-10.238282-3.90625-14.144532 0l-13.285156 13.285156v-24.289062c0-5.523438-4.476562-10-10-10h-40c-5.523438 0-10 4.476562-10 10v93h-20v-93c0-5.523438-4.476562-10-10-10h-30v-7c0-5.523438-4.476562-10-10-10h-30v-20h392v37zm-202 78.425781 24.574219 24.574219h-24.574219zm6.214844-22.066406 14.144531-14.144531 42.425781 42.425781-14.144531 14.144531zm-6.214844-253.359375v30h-40c0-5.523438-4.476562-10-10-10h-40c-5.523438 0-10 4.476562-10 10h-20c0-5.523438-4.476562-10-10-10h-30v-20zm232 0v140h-40v-100c0-5.523438-4.476562-10-10-10h-42c0-5.523438-4.476562-10-10-10h-30v-20zm-132 140v-100h20v100zm40-90h32v90h-32zm-60-50v140h-20v-140zm-40 140h-20v-140h20zm-80 0v-90h40v90zm-40 0v-100h20v100zm-40 0v-90h20v90zm-40 0v-100h20v100zm392-160h-32v-100h32zm-52-100v100h-20v-100zm-60-12h20v112h-20zm-20 12v100h-20v-100zm-90-12h50v112h-50zm-20 32v80h-20v-80zm-40-20v100h-30v-100zm-50 10v90h-20v-90zm-40-10v100h-20v-100zm-60 460v-472h20v472zm40-140h20v100h-20zm40 100v-83h20v83zm80 0v-83h20v83zm168-90h24v90h-24zm44 30h20v60h-20zm40 60v-83h20v83zm40 40v-472h20v472zm0 0"/><path d="m402 492c-5.511719 0-10 4.488281-10 10s4.488281 10 10 10 10-4.488281 10-10-4.488281-10-10-10zm0 0"/></symbol><symbol id="shelf" viewBox="-27 0 512 512"><title>shelf</title><path d="m7.5 7.5h442v497h-442zm0 0" fill="#fbe1a8"/><path d="m419.5 7.5h30v497h-30zm0 0" fill="#f2cf91"/><path d="m37.5 37.5h382v90h-382zm0 0" fill="#af8164"/><path d="m389.5 37.5h30v90h-30zm0 0" fill="#9a7055"/><path d="m37.5 157.5h382v90h-382zm0 0" fill="#af8164"/><path d="m389.5 157.5h30v90h-30zm0 0" fill="#9a7055"/><path d="m37.5 277.5h382v90h-382zm0 0" fill="#af8164"/><path d="m389.5 277.5h30v90h-30zm0 0" fill="#9a7055"/><path d="m243.5 401.5h176v70h-176zm0 0" fill="#eabf7e"/><path d="m37.5 401.5h176v70h-176zm0 0" fill="#eabf7e"/><path d="m76.75 73.5h30v54h-30zm0 0" fill="#b5fcff"/><path d="m106.75 62.5h30v65h-30zm0 0" fill="#fe5e70"/><path d="m136.75 73.5h30v54h-30zm0 0" fill="#e9eef2"/><path d="m166.75 62.5h30v65h-30zm0 0" fill="#ffd659"/><path d="m196.75 77.5h30v50h-30zm0 0" fill="#6d6670"/><path d="m230.5 193.5h30v54h-30zm0 0" fill="#b5fcff"/><path d="m260.5 182.5h30v65h-30zm0 0" fill="#fe5e70"/><path d="m290.5 193.5h30v54h-30zm0 0" fill="#e9eef2"/><path d="m320.5 182.5h30v65h-30zm0 0" fill="#ffd659"/><path d="m350.5 197.5h30v50h-30zm0 0" fill="#6d6670"/><path d="m97.5 313.5h30v54h-30zm0 0" fill="#b5fcff"/><path d="m127.5 302.5h30v65h-30zm0 0" fill="#fe5e70"/><path d="m157.5 313.5h30v54h-30zm0 0" fill="#e9eef2"/><path d="m187.5 302.5h30v65h-30zm0 0" fill="#ffd659"/><path d="m217.5 317.5h30v50h-30zm0 0" fill="#6d6670"/><path d="m449.5 440.25c-4.140625 0-7.5 3.359375-7.5 7.5v49.25h-427v-402c0-4.140625-3.359375-7.5-7.5-7.5s-7.5 3.359375-7.5 7.5v409.5c0 4.140625 3.359375 7.5 7.5 7.5h442c4.140625 0 7.5-3.359375 7.5-7.5v-56.75c0-4.140625-3.359375-7.5-7.5-7.5zm0 0"/><path d="m449.5 0h-442c-4.140625 0-7.5 3.359375-7.5 7.5v56.5c0 4.140625 3.359375 7.5 7.5 7.5s7.5-3.359375 7.5-7.5v-49h427v400.75c0 4.140625 3.359375 7.5 7.5 7.5s7.5-3.359375 7.5-7.5v-408.25c0-4.140625-3.359375-7.5-7.5-7.5zm0 0"/><path d="m37.5 135h382c4.140625 0 7.5-3.359375 7.5-7.5v-90c0-4.140625-3.359375-7.5-7.5-7.5h-382c-4.140625 0-7.5 3.359375-7.5 7.5v90c0 4.140625 3.359375 7.5 7.5 7.5zm61.75-15h-15v-39h15zm15-50h15v50h-15zm30 11h15v39h-15zm30-11h15v50h-15zm30 50v-35h15v35zm-159.25-75h367v75h-177.75v-42.5c0-4.140625-3.359375-7.5-7.5-7.5h-22.5v-7.5c0-4.140625-3.359375-7.5-7.5-7.5h-30c-4.140625 0-7.5 3.359375-7.5 7.5v3.5h-15v-3.5c0-4.140625-3.359375-7.5-7.5-7.5h-30c-4.140625 0-7.5 3.359375-7.5 7.5v3.5h-22.5c-4.140625 0-7.5 3.359375-7.5 7.5v46.5h-24.25zm0 0"/><path d="m30 247.5c0 4.140625 3.359375 7.5 7.5 7.5h30.75c4.140625 0 7.5-3.359375 7.5-7.5s-3.359375-7.5-7.5-7.5h-23.25v-75h367v75h-24v-42.5c0-4.140625-3.359375-7.5-7.5-7.5h-22.5v-7.5c0-4.140625-3.359375-7.5-7.5-7.5h-30c-4.140625 0-7.5 3.359375-7.5 7.5v3.5h-15v-3.5c0-4.140625-3.359375-7.5-7.5-7.5h-30c-4.140625 0-7.5 3.359375-7.5 7.5v3.5h-22.5c-4.140625 0-7.5 3.359375-7.5 7.5v46.5h-122.25c-4.140625 0-7.5 3.359375-7.5 7.5s3.359375 7.5 7.5 7.5h318.75c4.140625 0 7.5-3.359375 7.5-7.5v-90c0-4.140625-3.359375-7.5-7.5-7.5h-382c-4.140625 0-7.5 3.359375-7.5 7.5zm208-46.5h15v39h-15zm30-11h15v50h-15zm30 11h15v39h-15zm30-11h15v50h-15zm30 50v-35h15v35zm0 0"/><path d="m30 367.5c0 4.140625 3.359375 7.5 7.5 7.5h382c4.140625 0 7.5-3.359375 7.5-7.5v-90c0-4.140625-3.359375-7.5-7.5-7.5h-382c-4.140625 0-7.5 3.359375-7.5 7.5zm90-7.5h-15v-39h15zm15-50h15v50h-15zm30 11h15v39h-15zm30-11h15v50h-15zm30 50v-35h15v35zm-180-75h367v75h-157v-42.5c0-4.140625-3.359375-7.5-7.5-7.5h-22.5v-7.5c0-4.140625-3.359375-7.5-7.5-7.5h-30c-4.140625 0-7.5 3.359375-7.5 7.5v3.5h-15v-3.5c0-4.140625-3.359375-7.5-7.5-7.5h-30c-4.140625 0-7.5 3.359375-7.5 7.5v3.5h-22.5c-4.140625 0-7.5 3.359375-7.5 7.5v46.5h-45zm0 0"/><path d="m419.5 394h-176c-4.140625 0-7.5 3.359375-7.5 7.5v70c0 4.140625 3.359375 7.5 7.5 7.5h176c4.140625 0 7.5-3.359375 7.5-7.5v-70c0-4.140625-3.359375-7.5-7.5-7.5zm-7.5 70h-161v-55h161zm0 0"/><path d="m30 471.5c0 4.140625 3.359375 7.5 7.5 7.5h176c4.140625 0 7.5-3.359375 7.5-7.5v-70c0-4.140625-3.359375-7.5-7.5-7.5h-176c-4.140625 0-7.5 3.359375-7.5 7.5zm15-62.5h161v55h-161zm0 0"/><path d="m129.5 429h-10c-4.140625 0-7.5 3.359375-7.5 7.5s3.359375 7.5 7.5 7.5h10c4.140625 0 7.5-3.359375 7.5-7.5s-3.359375-7.5-7.5-7.5zm0 0"/><path d="m326.5 444h10c4.140625 0 7.5-3.359375 7.5-7.5s-3.359375-7.5-7.5-7.5h-10c-4.140625 0-7.5 3.359375-7.5 7.5s3.359375 7.5 7.5 7.5zm0 0"/></symbol></svg>